<?xml version="1.0" encoding="UTF-8"?>
<svg width="850px" height="300px" viewBox="0 0 850 300" version="1.1" xmlns="http://www.w3.org/2000/svg" xmlns:xlink="http://www.w3.org/1999/xlink">
    <title>watermerk-prio4-burgers</title>
    <defs>
        <path d="M0,0 L850,0 L850,300 L0,300 L0,0 Z" id="path-1"></path>
        <path d="M0,0 L850,0 L850,300 L0,300 L0,0 Z" id="path-2"></path>
        <path d="M0,0 L200,0 L200,197.87234 L0,197.87234 L0,0 Z" id="path-3"></path>
        <rect id="path-4" x="0" y="0" width="196.923077" height="197.87234"></rect>
        <rect id="path-6" x="0" y="0" width="196.923077" height="197.87234"></rect>
    </defs>
    <g id="watermerk-prio4-burgers" stroke="none" fill="none" xlink:href="#path-1" fill-rule="evenodd">
        <g id="achtergrond" xlink:href="#path-2">
            <path d="M0,0 L700,0 C782.842712,-2.84217094e-14 850,67.1572875 850,150 L850,300 L850,300 L0,300 L0,0 Z" id="icon-background" fill="#F9B729" opacity="0.9"></path>
            <rect id="Rectangle-2" fill-opacity="0" fill="#D8D8D8" x="581" y="49" width="200" height="200" rx="100"></rect>
        </g>
        <g id="Group" stroke-width="1" transform="translate(583, 49)">
            <g id="text-outline" transform="translate(-520, -7)" fill="#154273" fill-rule="nonzero">
                <path d="M81.48,60 C93.648,60 99.696,54.816 99.696,45.816 C99.696,40.344 96.24,36.528 90.336,35.304 L90.336,35.232 C94.584,33.648 97.752,29.976 97.752,24.072 C97.752,17.448 92.496,12.768 79.968,12.768 L66.792,12.768 L66.792,60 L81.48,60 Z M79.032,39.408 C86.88,39.408 89.76,41.784 89.76,45.816 C89.76,50.28 86.592,52.584 81.12,52.584 L76.008,52.584 L76.008,39.408 L79.032,39.408 Z M79.68,20.184 C85.8,20.184 87.888,22.128 87.888,25.944 C87.888,30.552 85.008,32.496 79.32,32.496 L76.008,32.496 L76.008,20.184 L79.68,20.184 Z" id="Shape"></path>
                <path d="M115.968,24.144 L107.184,24.504 L107.184,47.472 C107.184,55.896 111.216,60.72 119.568,60.72 C123.168,60.72 125.4,59.568 128.568,57.552 L128.568,60 L137.064,60 L137.064,24.144 L128.28,24.504 L128.28,51.072 C125.976,52.08 124.392,52.512 121.872,52.512 C117.696,52.512 115.968,50.64 115.968,45.744 L115.968,24.144 Z" id="Path"></path>
                <path d="M167.232,24.36 C165.936,24 164.712,23.856 163.056,23.856 C160.248,23.856 158.016,25.08 155.64,28.248 L155.64,24.144 L146.856,24.504 L146.856,60 L155.712,60 L155.712,34.656 C158.088,32.928 160.392,32.28 162.624,32.28 C164.136,32.28 165.144,32.424 166.656,32.784 L167.232,24.36 Z" id="Path"></path>
                <path d="M178.104,50.424 C178.104,49.632 178.68,48.768 179.544,48.336 C180.984,48.696 182.568,48.912 184.152,48.912 C194.16,48.912 199.56,44.592 199.56,37.104 C199.56,33.864 198.048,31.56 196.464,30.624 L196.464,30.408 L202.08,30.408 L202.08,24.648 L190.416,24.648 C188.544,24.144 186.816,23.856 184.8,23.856 C175.728,23.856 169.608,28.752 169.608,37.248 C169.608,41.784 171.84,44.88 175.224,46.536 L175.224,46.752 C172.488,47.832 170.904,49.992 170.904,52.296 C170.904,54.672 172.2,56.472 174.072,57.192 L174.072,57.408 C170.544,58.776 168.312,61.656 168.312,65.04 C168.312,70.512 173.208,74.112 183.648,74.112 C196.824,74.112 202.584,68.568 202.584,61.728 C202.584,56.184 199.2,53.088 191.064,53.016 L182.784,52.944 C179.328,52.944 178.104,52.008 178.104,50.424 Z M184.656,43.152 C180.336,43.152 177.888,41.136 177.888,36.816 C177.888,32.208 180.696,29.976 184.728,29.976 C189.336,29.976 191.496,32.208 191.496,36.312 C191.496,41.064 189.048,43.152 184.656,43.152 Z M176.232,63.168 C176.232,61.656 176.88,60.432 178.032,59.568 L190.056,59.928 C193.368,60 194.736,61.152 194.736,63.168 C194.736,65.76 191.856,67.704 184.368,67.704 C178.824,67.704 176.232,65.976 176.232,63.168 Z" id="Shape"></path>
                <path d="M206.544,42.216 C206.544,54.6 213.6,60.432 224.76,60.432 C229.584,60.432 232.32,59.784 236.136,58.632 L236.136,51.432 C232.68,52.512 229.944,53.016 225.912,53.016 C219.504,53.016 216.12,50.424 215.04,44.736 L236.928,44.736 C237.144,43.152 237.216,40.632 237.216,38.256 C237.216,29.112 231.672,23.64 222.888,23.64 C213.816,23.64 206.544,30.048 206.544,42.216 Z M215.04,38.4 C215.688,33.216 218.568,30.408 222.24,30.408 C226.2,30.408 228.72,33.72 228.72,38.4 L215.04,38.4 Z" id="Shape"></path>
                <path d="M265.224,24.36 C263.928,24 262.704,23.856 261.048,23.856 C258.24,23.856 256.008,25.08 253.632,28.248 L253.632,24.144 L244.848,24.504 L244.848,60 L253.704,60 L253.704,34.656 C256.08,32.928 258.384,32.28 260.616,32.28 C262.128,32.28 263.136,32.424 264.648,32.784 L265.224,24.36 Z" id="Path"></path>
                <path d="M267.816,59.496 C270.552,60.144 274.224,60.432 278.184,60.432 C287.616,60.432 293.376,55.968 293.376,48.48 C293.376,43.656 291,40.488 284.736,38.76 L280.488,37.608 C277.032,36.672 276.528,35.808 276.528,34.224 C276.528,32.568 278.328,31.272 282.648,31.272 C285.672,31.272 288.192,31.488 291.36,31.992 L291.864,24.576 C289.416,24.144 286.392,23.856 283.08,23.856 C273.288,23.856 267.744,28.608 267.744,35.232 C267.744,40.344 270.48,43.368 275.448,44.808 L279.984,46.176 C283.656,47.256 284.52,48.192 284.52,49.848 C284.52,51.792 283.008,53.088 277.968,53.088 C274.8,53.088 271.272,52.728 267.816,51.864 L267.816,59.496 Z" id="Path"></path>
                <path d="M313.176,42.216 C313.176,54.6 320.232,60.432 331.392,60.432 C336.216,60.432 338.952,59.784 342.768,58.632 L342.768,51.432 C339.312,52.512 336.576,53.016 332.544,53.016 C326.136,53.016 322.752,50.424 321.672,44.736 L343.56,44.736 C343.776,43.152 343.848,40.632 343.848,38.256 C343.848,29.112 338.304,23.64 329.52,23.64 C320.448,23.64 313.176,30.048 313.176,42.216 Z M321.672,38.4 C322.32,33.216 325.2,30.408 328.872,30.408 C332.832,30.408 335.352,33.72 335.352,38.4 L321.672,38.4 Z" id="Shape"></path>
                <path d="M373.008,60 L381.864,60 L381.864,36.6 C381.864,28.32 377.184,23.856 369.48,23.856 C365.88,23.856 363.144,24.72 360.048,26.808 L360.048,24.144 L351.48,24.504 L351.48,60 L360.336,60 L360.336,33.144 C362.712,32.28 364.368,31.992 366.816,31.992 C370.848,31.992 373.008,33.792 373.008,38.472 L373.008,60 Z" id="Path"></path>
                <path d="M56.1,113.496 C56.1,101.688 49.044,95.64 39.108,95.64 C29.46,95.64 21.108,103.128 21.108,114.864 C21.108,126.6 28.164,132.648 38.1,132.648 C47.748,132.648 56.1,125.232 56.1,113.496 Z M47.1,113.712 C47.1,120.984 43.284,124.872 38.604,124.872 C33.492,124.872 30.108,121.56 30.108,114.576 C30.108,107.232 33.924,103.416 38.604,103.416 C43.644,103.416 47.1,106.8 47.1,113.712 Z" id="Shape"></path>
                <path d="M85.404,132 L94.26,132 L94.26,108.6 C94.26,100.32 89.58,95.856 81.876,95.856 C78.276,95.856 75.54,96.72 72.444,98.808 L72.444,96.144 L63.876,96.504 L63.876,132 L72.732,132 L72.732,105.144 C75.108,104.28 76.764,103.992 79.212,103.992 C83.244,103.992 85.404,105.792 85.404,110.472 L85.404,132 Z" id="Path"></path>
                <path d="M134.076,81.672 L125.22,82.104 L125.22,96.36 C123.564,96 122.052,95.856 120.324,95.856 C109.524,95.856 101.46,103.2 101.46,114.936 C101.46,126.528 107.292,132.432 116.292,132.432 C119.82,132.432 122.988,131.352 125.508,129.552 L125.508,132 L134.076,132 L134.076,81.672 Z M120.468,103.344 C122.268,103.344 123.636,103.488 125.292,103.704 L125.292,123.36 C122.988,124.44 121.476,124.8 119.028,124.8 C113.988,124.8 110.46,121.848 110.46,114.504 C110.46,107.52 114.42,103.344 120.468,103.344 Z" id="Shape"></path>
                <path d="M141.852,114.216 C141.852,126.6 148.908,132.432 160.068,132.432 C164.892,132.432 167.628,131.784 171.444,130.632 L171.444,123.432 C167.988,124.512 165.252,125.016 161.22,125.016 C154.812,125.016 151.428,122.424 150.348,116.736 L172.236,116.736 C172.452,115.152 172.524,112.632 172.524,110.256 C172.524,101.112 166.98,95.64 158.196,95.64 C149.124,95.64 141.852,102.048 141.852,114.216 Z M150.348,110.4 C150.996,105.216 153.876,102.408 157.548,102.408 C161.508,102.408 164.028,105.72 164.028,110.4 L150.348,110.4 Z" id="Shape"></path>
                <path d="M200.532,96.36 C199.236,96 198.012,95.856 196.356,95.856 C193.548,95.856 191.316,97.08 188.94,100.248 L188.94,96.144 L180.156,96.504 L180.156,132 L189.012,132 L189.012,106.656 C191.388,104.928 193.692,104.28 195.924,104.28 C197.436,104.28 198.444,104.424 199.956,104.784 L200.532,96.36 Z" id="Path"></path>
                <path d="M226.668,132 L235.524,132 L235.524,108.6 C235.524,100.32 230.844,95.856 223.14,95.856 C219.54,95.856 216.804,96.72 213.708,98.808 L213.708,96.144 L205.14,96.504 L205.14,132 L213.996,132 L213.996,105.144 C216.372,104.28 218.028,103.992 220.476,103.992 C224.508,103.992 226.668,105.792 226.668,110.472 L226.668,132 Z" id="Path"></path>
                <path d="M242.724,114.216 C242.724,126.6 249.78,132.432 260.94,132.432 C265.764,132.432 268.5,131.784 272.316,130.632 L272.316,123.432 C268.86,124.512 266.124,125.016 262.092,125.016 C255.684,125.016 252.3,122.424 251.22,116.736 L273.108,116.736 C273.324,115.152 273.396,112.632 273.396,110.256 C273.396,101.112 267.852,95.64 259.068,95.64 C249.996,95.64 242.724,102.048 242.724,114.216 Z M251.22,110.4 C251.868,105.216 254.748,102.408 258.42,102.408 C262.38,102.408 264.9,105.72 264.9,110.4 L251.22,110.4 Z" id="Shape"></path>
                <path d="M323.364,132 L332.22,132 L332.22,108.672 C332.22,100.392 327.684,95.856 319.908,95.856 C315.588,95.856 311.988,97.296 308.676,99.816 C306.444,97.224 303.564,95.856 298.956,95.856 C295.428,95.856 292.836,96.648 289.596,98.808 L289.596,96.144 L281.028,96.504 L281.028,132 L289.884,132 L289.884,105.144 C292.188,104.28 293.556,103.992 296.076,103.992 C299.964,103.992 302.196,105.792 302.196,110.616 L302.196,132 L311.052,132 L311.052,105.144 C313.428,104.208 314.796,103.992 317.244,103.992 C321.204,103.992 323.364,105.864 323.364,110.616 L323.364,132 Z" id="Path"></path>
                <path d="M339.42,114.216 C339.42,126.6 346.476,132.432 357.636,132.432 C362.46,132.432 365.196,131.784 369.012,130.632 L369.012,123.432 C365.556,124.512 362.82,125.016 358.788,125.016 C352.38,125.016 348.996,122.424 347.916,116.736 L369.804,116.736 C370.02,115.152 370.092,112.632 370.092,110.256 C370.092,101.112 364.548,95.64 355.764,95.64 C346.692,95.64 339.42,102.048 339.42,114.216 Z M347.916,110.4 C348.564,105.216 351.444,102.408 355.116,102.408 C359.076,102.408 361.596,105.72 361.596,110.4 L347.916,110.4 Z" id="Shape"></path>
                <path d="M398.1,96.36 C396.804,96 395.58,95.856 393.924,95.856 C391.116,95.856 388.884,97.08 386.508,100.248 L386.508,96.144 L377.724,96.504 L377.724,132 L386.58,132 L386.58,106.656 C388.956,104.928 391.26,104.28 393.492,104.28 C395.004,104.28 396.012,104.424 397.524,104.784 L398.1,96.36 Z" id="Path"></path>
                <path d="M400.692,131.496 C403.428,132.144 407.1,132.432 411.06,132.432 C420.492,132.432 426.252,127.968 426.252,120.48 C426.252,115.656 423.876,112.488 417.612,110.76 L413.364,109.608 C409.908,108.672 409.404,107.808 409.404,106.224 C409.404,104.568 411.204,103.272 415.524,103.272 C418.548,103.272 421.068,103.488 424.236,103.992 L424.74,96.576 C422.292,96.144 419.268,95.856 415.956,95.856 C406.164,95.856 400.62,100.608 400.62,107.232 C400.62,112.344 403.356,115.368 408.324,116.808 L412.86,118.176 C416.532,119.256 417.396,120.192 417.396,121.848 C417.396,123.792 415.884,125.088 410.844,125.088 C407.676,125.088 404.148,124.728 400.692,123.864 L400.692,131.496 Z" id="Path"></path>
                <path d="M127.812,168.576 C125.292,167.928 123.348,167.712 120.324,167.712 C110.604,167.712 102.54,174.84 102.54,186.792 C102.54,198.816 109.452,204.432 120.108,204.432 C122.916,204.432 125.292,204.144 127.668,203.424 L127.668,195.864 C125.22,196.512 123.276,196.8 120.972,196.8 C115.572,196.8 111.54,193.704 111.54,186.432 C111.54,179.736 115.284,175.92 120.9,175.92 C123.132,175.92 125.004,176.136 127.092,176.568 L127.812,168.576 Z" id="Path"></path>
                <path d="M132.348,186.216 C132.348,198.6 139.404,204.432 150.564,204.432 C155.388,204.432 158.124,203.784 161.94,202.632 L161.94,195.432 C158.484,196.512 155.748,197.016 151.716,197.016 C145.308,197.016 141.924,194.424 140.844,188.736 L162.732,188.736 C162.948,187.152 163.02,184.632 163.02,182.256 C163.02,173.112 157.476,167.64 148.692,167.64 C139.62,167.64 132.348,174.048 132.348,186.216 Z M140.844,182.4 C141.492,177.216 144.372,174.408 148.044,174.408 C152.004,174.408 154.524,177.72 154.524,182.4 L140.844,182.4 Z" id="Shape"></path>
                <path d="M192.18,204 L201.036,204 L201.036,180.6 C201.036,172.32 196.356,167.856 188.652,167.856 C185.052,167.856 182.316,168.72 179.22,170.808 L179.22,168.144 L170.652,168.504 L170.652,204 L179.508,204 L179.508,177.144 C181.884,176.28 183.54,175.992 185.988,175.992 C190.02,175.992 192.18,177.792 192.18,182.472 L192.18,204 Z" id="Path"></path>
                <path d="M207.228,174.984 L211.548,174.984 L211.548,192.336 C211.548,200.4 216.012,204.432 222.996,204.432 C225.876,204.432 227.676,204.216 230.196,203.568 L230.196,196.224 C228.324,196.728 227.316,196.872 225.66,196.872 C222.492,196.872 220.332,195.072 220.332,191.112 L220.332,174.984 L229.332,174.984 L229.332,168.288 L220.332,168.288 L220.332,161.016 L211.548,161.736 L211.548,168.288 L207.228,168.288 L207.228,174.984 Z" id="Path"></path>
                <path d="M256.548,168.36 C255.252,168 254.028,167.856 252.372,167.856 C249.564,167.856 247.332,169.08 244.956,172.248 L244.956,168.144 L236.172,168.504 L236.172,204 L245.028,204 L245.028,178.656 C247.404,176.928 249.708,176.28 251.94,176.28 C253.452,176.28 254.46,176.424 255.972,176.784 L256.548,168.36 Z" id="Path"></path>
                <path d="M288.156,180.672 C288.156,172.464 283.476,167.856 273.324,167.856 C268.716,167.856 264.9,168.648 260.436,170.52 L261.588,177.936 C265.404,176.352 268.212,175.776 271.668,175.776 C277.572,175.776 279.588,177.864 279.588,181.536 L279.588,183.12 C278.22,183.12 276.564,183.048 274.764,183.048 C263.46,183.048 258.492,187.656 258.492,194.424 C258.492,200.4 262.452,204.432 269.868,204.432 C274.116,204.432 277.068,203.568 279.876,201.768 L279.876,204 L288.156,204 L288.156,180.672 Z M267.492,193.704 C267.492,191.04 269.652,189.24 275.052,189.24 C276.42,189.24 278.22,189.312 279.588,189.384 L279.588,195.936 C277.284,197.016 275.268,197.52 272.532,197.52 C269.364,197.52 267.492,196.08 267.492,193.704 Z" id="Shape"></path>
                <path d="M324.372,180.672 C324.372,172.464 319.692,167.856 309.54,167.856 C304.932,167.856 301.116,168.648 296.652,170.52 L297.804,177.936 C301.62,176.352 304.428,175.776 307.884,175.776 C313.788,175.776 315.804,177.864 315.804,181.536 L315.804,183.12 C314.436,183.12 312.78,183.048 310.98,183.048 C299.676,183.048 294.708,187.656 294.708,194.424 C294.708,200.4 298.668,204.432 306.084,204.432 C310.332,204.432 313.284,203.568 316.092,201.768 L316.092,204 L324.372,204 L324.372,180.672 Z M303.708,193.704 C303.708,191.04 305.868,189.24 311.268,189.24 C312.636,189.24 314.436,189.312 315.804,189.384 L315.804,195.936 C313.5,197.016 311.484,197.52 308.748,197.52 C305.58,197.52 303.708,196.08 303.708,193.704 Z" id="Shape"></path>
                <polygon id="Path" points="342.444 153.672 333.588 154.104 333.588 204 342.444 204"></polygon>
            </g>
            <g id="icon-data" xlink:href="#path-3">
                <g id="SVG_groep-5-personen_Donkerblauw" transform="translate(1.5385, 0)">
                    <mask id="mask-5" fill="white">
                        <use xlink:href="#path-4"></use>
                    </mask>
                    <g id="Rectangle"></g>
                    <g id="Clipped" mask="url(#mask-5)">
                        <mask id="mask-7" fill="white">
                            <use xlink:href="#path-6"></use>
                        </mask>
                        <g id="Rectangle"></g>
                        <g id="Group" mask="url(#mask-7)" fill="#154273" fill-rule="nonzero">
                            <g transform="translate(-0.1538, 0)" id="Path">
                                <path d="M97.0769231,52.5598404 C105.846154,52.5598404 110.923077,46.3144947 110.923077,37.3484043 C110.923077,27.1146941 105.630769,21.6422872 97.0769231,21.6422872 C88.0615385,21.6422872 83.2307692,28.1349734 83.2307692,37.3484043 C83.2307692,47.0874335 88.3076923,52.5598404 97.0769231,52.5598404"></path>
                                <path d="M182.492308,108.829787 C180.615385,98.7815824 178.307692,93.278258 177.476923,86.2599734 C175.6,70.7702793 170.892308,63.3191489 162.153846,60.6293218 C158,59.3307846 154,58.7433511 149.476923,58.7433511 L149.323077,58.7433511 C144.8,58.7433511 140.830769,59.3307846 136.646154,60.6293218 C133.692308,61.5259309 131.230769,63.0099734 129.169231,65.112367 C131.261538,68.0495346 132.830769,71.5741356 134,75.4079122 C134.153846,75.1296543 134.276923,74.8823138 134.276923,74.8823138 C134.215385,75.1914894 134.153846,75.4388298 134.092308,75.7170878 C138.184615,89.6609043 137.076923,108.025931 136.276923,121.104056 C135.784615,129.204455 131.507692,134.027593 126.553846,136.037234 C126.492308,137.675864 126.430769,139.37633 126.430769,141.200465 C126.430769,141.200465 130.4,141.973404 135.538462,142.189827 L136.184615,185.474402 C136.184615,185.474402 146.092308,183.959441 146.738462,174.220412 C146.738462,174.220412 147.569231,152.454455 147.969231,141.355053 C148.461538,141.262301 148.953846,141.200465 149.476923,141.107713 C149.907692,141.045878 150.338462,140.984043 150.8,140.89129 C151.169231,151.743351 152.030769,173.942154 152.030769,173.942154 C152.523077,183.959441 162.615385,185.474402 162.615385,185.474402 L163.230769,140.705785 C167.907692,141.13863 172.338462,141.911569 172.338462,141.911569 C172.338462,118.259641 166.092308,108.79887 164.153846,101.378657 C163.107692,97.4521277 163.323077,93.3091755 164.276923,89.3517287 C165.169231,85.6416223 166.307692,82.1788564 164.523077,74.8513963 C164.523077,74.8513963 165.476923,76.5209441 165.846154,77.6030585 C167.938462,83.6010638 167.323077,95.1951463 175.815385,121.907912 C179.507692,121.444149 184.030769,116.961104 182.492308,108.767952"></path>
                                <path d="M131.661538,121.104056 C132.861538,101.502327 135.107692,66.2563165 115.969231,61.0621676 C105.015385,58.0940824 90.5230769,57.846742 78.1846154,61.0621676 C58.9846154,66.0708112 61.2923077,101.47141 62.4923077,121.104056 C63.0461538,130.039229 69.2307692,132.543551 73.3230769,132.543551 L73.3230769,108.396941 C73.3230769,97.637633 73.4769231,87.4966755 75.8153846,81.2822473 C76.2153846,80.200133 76.8615385,80.0764628 77.0769231,80.3547207 L77.0769231,197.841423 C85.6307692,197.841423 92.4615385,193.111037 93.2,183.619348 C93.2,183.619348 95.4461538,131.523271 95.4769231,130.90492 C95.4769231,130.286569 96.0923077,129.451795 97.1076923,129.451795 C98.1230769,129.451795 98.7076923,130.255652 98.7384615,130.90492 C98.7384615,131.523271 101.015385,183.619348 101.015385,183.619348 C101.753846,193.141955 108.646154,197.841423 117.138462,197.841423 L117.138462,80.3856383 C117.507692,80.0455452 118.092308,80.1692154 118.4,81.3131649 C120.246154,87.6512633 120.892308,97.7922207 120.892308,108.427859 L120.892308,132.574468 C124.984615,132.574468 131.169231,130.039229 131.723077,121.134973"></path>
                                <path d="M72.4615385,24.7340426 C79.2923077,24.7340426 83.2307692,19.7563165 83.2307692,12.5834441 C83.2307692,4.39029255 79.1076923,0 72.4615385,0 C65.4461538,0 61.6923077,5.19414894 61.6923077,12.5834441 C61.6923077,20.3746676 65.6307692,24.7340426 72.4615385,24.7340426"></path>
                                <path d="M121.692308,24.7340426 C128.523077,24.7340426 132.461538,19.7563165 132.461538,12.5834441 C132.461538,4.39029255 128.338462,0 121.692308,0 C114.676923,0 110.923077,5.19414894 110.923077,12.5834441 C110.923077,20.3746676 114.861538,24.7340426 121.692308,24.7340426"></path>
                                <path d="M147.846154,52.5598404 C155.630769,52.5598404 160.153846,47.6130319 160.153846,38.8633644 C160.153846,30.1136968 155.846154,24.7340426 147.846154,24.7340426 C139.846154,24.7340426 135.538462,29.6808511 135.538462,38.8633644 C135.538462,46.9328457 140.061538,52.5598404 147.846154,52.5598404"></path>
                                <path d="M67.0153846,62.1133644 C65.9692308,61.5568484 64.8923077,61.0930851 63.7230769,60.7839096 C54,58.125 37.9692308,58.125 28.6153846,60.7839096 C23.9692308,62.1133644 20.4615385,65.390625 18.2769231,69.9664229 C12.4615385,82.1170213 2.17774516e-15,119.434508 2.17774516e-15,119.434508 C0.769230769,119.991024 2.12307692,120.114694 3.63076923,119.929189 C4.8,131.925199 9.75384615,183.21742 10,185.134309 C10.2153846,186.927527 16.2461538,186.340093 16.0615385,184.423205 C15.8769231,182.413564 12.3692308,132.605386 11.2307692,116.559176 C12.4,115.538896 13.4153846,114.302194 14,112.879987 C16.4307692,107.036569 19.1076923,100.420213 20.8923077,95.349734 C23.2,88.7952128 24.7076923,84.0648271 26.6769231,79.8291223 C27.1076923,78.9325133 27.5076923,78.3759973 27.9384615,78.7779255 L27.9384615,185.474402 C35.2,185.474402 40.5230769,181.084109 41.2,172.396277 C41.2,172.396277 43.2615385,124.906915 43.2923077,124.350399 C43.2923077,123.762965 43.8461538,123.020944 44.8,123.020944 C45.7538462,123.020944 46.2461538,123.762965 46.2461538,124.350399 C46.2461538,124.937832 48.3076923,172.489029 48.3076923,172.489029 C48.8,180.867686 53.4461538,185.474402 61.6615385,185.474402 L61.6615385,131.739694 C59.5692308,129.235372 58.1538462,125.865359 57.8769231,121.413231 C56.8,103.975731 54.8615385,74.4803856 66.9846154,62.0824468"></path>
                                <path d="M34.1230769,37.0392287 C34.0615385,37.6575798 34,38.2450133 34,38.8942819 C34,47.6439495 38.5230769,52.590758 46.3076923,52.590758 C54.0923077,52.590758 58.6153846,46.9946809 58.6153846,38.8942819 C58.6153846,34.1638963 58.1230769,26.7436835 53.6615385,25.1050532 C51.6615385,24.3939495 47.7230769,24.8577128 43.5076923,25.9398271 C43.4769231,25.9398271 43.4461538,25.9398271 43.4153846,25.9398271 C35.8153846,27.887633 27.9076923,31.7523271 27.8767029,34.1329787 C27.8461538,36.3590426 31.0461538,36.5136303 34.1230769,37.0392287"></path>
                            </g>
                        </g>
                    </g>
                </g>
            </g>
        </g>
    </g>
</svg>