<?xml version="1.0" encoding="UTF-8"?>
<svg width="850px" height="300px" viewBox="0 0 850 300" version="1.1" xmlns="http://www.w3.org/2000/svg" xmlns:xlink="http://www.w3.org/1999/xlink">
    <title>watermerk-prio6-vakmanschap</title>
    <defs>
        <path d="M0,0 L850,0 L850,300 L0,300 L0,0 Z" id="path-1"></path>
        <path d="M0,0 L850,0 L850,300 L0,300 L0,0 Z" id="path-2"></path>
    </defs>
    <g id="watermerk-prio6-vakmanschap" stroke="none" fill="none" xlink:href="#path-1" fill-rule="evenodd">
        <g id="achtergrond" xlink:href="#path-2">
            <path d="M0,0 L700,0 C782.842712,-2.84217094e-14 850,67.1572875 850,150 L850,300 L850,300 L0,300 L0,0 Z" id="icon-background" fill="#F9B729" opacity="0.9"></path>
            <rect id="Rectangle-2" fill-opacity="0" fill="#D8D8D8" x="581" y="49" width="200" height="200" rx="100"></rect>
        </g>
        <g id="text-outlines" stroke-width="1" transform="translate(63, 42)" fill="#154273">
            <path d="M123.168,96 C139.008,96 148.728,88.152 148.728,71.016 C148.728,56.904 139.872,48.768 123.6,48.768 L109.848,48.768 L109.848,96 L123.168,96 Z M119.208,56.4 L123.024,56.4 C132.816,56.4 138.864,61.656 138.864,71.448 C138.864,83.472 132.888,88.368 123.6,88.368 L119.208,88.368 L119.208,56.4 Z" id="Shape" fill-rule="nonzero"></path>
            <path d="M165.864,60.144 L157.008,60.504 L157.008,96 L165.864,96 L165.864,60.144 Z M156.288,50.568 C156.288,53.376 158.088,55.464 161.4,55.464 C164.712,55.464 166.512,53.16 166.512,50.568 C166.512,47.688 164.712,45.528 161.4,45.528 C158.088,45.528 156.288,47.904 156.288,50.568 Z" id="Shape" fill-rule="nonzero"></path>
            <path d="M181.92,86.424 C181.92,85.632 182.496,84.768 183.36,84.336 C184.8,84.696 186.384,84.912 187.968,84.912 C197.976,84.912 203.376,80.592 203.376,73.104 C203.376,69.864 201.864,67.56 200.28,66.624 L200.28,66.408 L205.896,66.408 L205.896,60.648 L194.232,60.648 C192.36,60.144 190.632,59.856 188.616,59.856 C179.544,59.856 173.424,64.752 173.424,73.248 C173.424,77.784 175.656,80.88 179.04,82.536 L179.04,82.752 C176.304,83.832 174.72,85.992 174.72,88.296 C174.72,90.672 176.016,92.472 177.888,93.192 L177.888,93.408 C174.36,94.776 172.128,97.656 172.128,101.04 C172.128,106.512 177.024,110.112 187.464,110.112 C200.64,110.112 206.4,104.568 206.4,97.728 C206.4,92.184 203.016,89.088 194.88,89.016 L186.6,88.944 C183.144,88.944 181.92,88.008 181.92,86.424 Z M188.472,79.152 C184.152,79.152 181.704,77.136 181.704,72.816 C181.704,68.208 184.512,65.976 188.544,65.976 C193.152,65.976 195.312,68.208 195.312,72.312 C195.312,77.064 192.864,79.152 188.472,79.152 Z M180.048,99.168 C180.048,97.656 180.696,96.432 181.848,95.568 L193.872,95.928 C197.184,96 198.552,97.152 198.552,99.168 C198.552,101.76 195.672,103.704 188.184,103.704 C182.64,103.704 180.048,101.976 180.048,99.168 Z" id="Shape" fill-rule="nonzero"></path>
            <path d="M221.232,60.144 L212.376,60.504 L212.376,96 L221.232,96 L221.232,60.144 Z M211.656,50.568 C211.656,53.376 213.456,55.464 216.768,55.464 C220.08,55.464 221.88,53.16 221.88,50.568 C221.88,47.688 220.08,45.528 216.768,45.528 C213.456,45.528 211.656,47.904 211.656,50.568 Z" id="Shape" fill-rule="nonzero"></path>
            <path d="M228,66.984 L232.32,66.984 L232.32,84.336 C232.32,92.4 236.784,96.432 243.768,96.432 C246.648,96.432 248.448,96.216 250.968,95.568 L250.968,88.224 C249.096,88.728 248.088,88.872 246.432,88.872 C243.264,88.872 241.104,87.072 241.104,83.112 L241.104,66.984 L250.104,66.984 L250.104,60.288 L241.104,60.288 L241.104,53.016 L232.32,53.736 L232.32,60.288 L228,60.288 L228,66.984 Z" id="Path" fill-rule="nonzero"></path>
            <path d="M283.944,72.672 C283.944,64.464 279.264,59.856 269.112,59.856 C264.504,59.856 260.688,60.648 256.224,62.52 L257.376,69.936 C261.192,68.352 264,67.776 267.456,67.776 C273.36,67.776 275.376,69.864 275.376,73.536 L275.376,75.12 C274.008,75.12 272.352,75.048 270.552,75.048 C259.248,75.048 254.28,79.656 254.28,86.424 C254.28,92.4 258.24,96.432 265.656,96.432 C269.904,96.432 272.856,95.568 275.664,93.768 L275.664,96 L283.944,96 L283.944,72.672 Z M263.28,85.704 C263.28,83.04 265.44,81.24 270.84,81.24 C272.208,81.24 274.008,81.312 275.376,81.384 L275.376,87.936 C273.072,89.016 271.056,89.52 268.32,89.52 C265.152,89.52 263.28,88.08 263.28,85.704 Z" id="Shape" fill-rule="nonzero"></path>
            <path d="M320.16,72.672 C320.16,64.464 315.48,59.856 305.328,59.856 C300.72,59.856 296.904,60.648 292.44,62.52 L293.592,69.936 C297.408,68.352 300.216,67.776 303.672,67.776 C309.576,67.776 311.592,69.864 311.592,73.536 L311.592,75.12 C310.224,75.12 308.568,75.048 306.768,75.048 C295.464,75.048 290.496,79.656 290.496,86.424 C290.496,92.4 294.456,96.432 301.872,96.432 C306.12,96.432 309.072,95.568 311.88,93.768 L311.88,96 L320.16,96 L320.16,72.672 Z M299.496,85.704 C299.496,83.04 301.656,81.24 307.056,81.24 C308.424,81.24 310.224,81.312 311.592,81.384 L311.592,87.936 C309.288,89.016 307.272,89.52 304.536,89.52 C301.368,89.52 299.496,88.08 299.496,85.704 Z" id="Shape" fill-rule="nonzero"></path>
            <polygon id="Path" fill-rule="nonzero" points="338.232 45.672 329.376 46.104 329.376 96 338.232 96"></polygon>
            <polygon id="Path" fill-rule="nonzero" points="24.096 168 36.336 168 47.352 132.288 38.136 132.288 30.936 161.16 30.36 161.16 23.088 132.288 12.936 132.288"></polygon>
            <path d="M79.392,144.672 C79.392,136.464 74.712,131.856 64.56,131.856 C59.952,131.856 56.136,132.648 51.672,134.52 L52.824,141.936 C56.64,140.352 59.448,139.776 62.904,139.776 C68.808,139.776 70.824,141.864 70.824,145.536 L70.824,147.12 C69.456,147.12 67.8,147.048 66,147.048 C54.696,147.048 49.728,151.656 49.728,158.424 C49.728,164.4 53.688,168.432 61.104,168.432 C65.352,168.432 68.304,167.568 71.112,165.768 L71.112,168 L79.392,168 L79.392,144.672 Z M58.728,157.704 C58.728,155.04 60.888,153.24 66.288,153.24 C67.656,153.24 69.456,153.312 70.824,153.384 L70.824,159.936 C68.52,161.016 66.504,161.52 63.768,161.52 C60.6,161.52 58.728,160.08 58.728,157.704 Z" id="Shape" fill-rule="nonzero"></path>
            <polygon id="Path" fill-rule="nonzero" points="97.464 151.656 100.92 151.656 110.424 168 121.08 168 108.192 147.264 120.216 132.288 110.28 132.288 100.416 144.96 97.464 144.96 97.464 117.672 88.608 118.104 88.608 168 97.464 168"></polygon>
            <path d="M168.384,168 L177.24,168 L177.24,144.672 C177.24,136.392 172.704,131.856 164.928,131.856 C160.608,131.856 157.008,133.296 153.696,135.816 C151.464,133.224 148.584,131.856 143.976,131.856 C140.448,131.856 137.856,132.648 134.616,134.808 L134.616,132.144 L126.048,132.504 L126.048,168 L134.904,168 L134.904,141.144 C137.208,140.28 138.576,139.992 141.096,139.992 C144.984,139.992 147.216,141.792 147.216,146.616 L147.216,168 L156.072,168 L156.072,141.144 C158.448,140.208 159.816,139.992 162.264,139.992 C166.224,139.992 168.384,141.864 168.384,146.616 L168.384,168 Z" id="Path" fill-rule="nonzero"></path>
            <path d="M213.456,144.672 C213.456,136.464 208.776,131.856 198.624,131.856 C194.016,131.856 190.2,132.648 185.736,134.52 L186.888,141.936 C190.704,140.352 193.512,139.776 196.968,139.776 C202.872,139.776 204.888,141.864 204.888,145.536 L204.888,147.12 C203.52,147.12 201.864,147.048 200.064,147.048 C188.76,147.048 183.792,151.656 183.792,158.424 C183.792,164.4 187.752,168.432 195.168,168.432 C199.416,168.432 202.368,167.568 205.176,165.768 L205.176,168 L213.456,168 L213.456,144.672 Z M192.792,157.704 C192.792,155.04 194.952,153.24 200.352,153.24 C201.72,153.24 203.52,153.312 204.888,153.384 L204.888,159.936 C202.584,161.016 200.568,161.52 197.832,161.52 C194.664,161.52 192.792,160.08 192.792,157.704 Z" id="Shape" fill-rule="nonzero"></path>
            <path d="M244.2,168 L253.056,168 L253.056,144.6 C253.056,136.32 248.376,131.856 240.672,131.856 C237.072,131.856 234.336,132.72 231.24,134.808 L231.24,132.144 L222.672,132.504 L222.672,168 L231.528,168 L231.528,141.144 C233.904,140.28 235.56,139.992 238.008,139.992 C242.04,139.992 244.2,141.792 244.2,146.472 L244.2,168 Z" id="Path" fill-rule="nonzero"></path>
            <path d="M260.256,167.496 C262.992,168.144 266.664,168.432 270.624,168.432 C280.056,168.432 285.816,163.968 285.816,156.48 C285.816,151.656 283.44,148.488 277.176,146.76 L272.928,145.608 C269.472,144.672 268.968,143.808 268.968,142.224 C268.968,140.568 270.768,139.272 275.088,139.272 C278.112,139.272 280.632,139.488 283.8,139.992 L284.304,132.576 C281.856,132.144 278.832,131.856 275.52,131.856 C265.728,131.856 260.184,136.608 260.184,143.232 C260.184,148.344 262.92,151.368 267.888,152.808 L272.424,154.176 C276.096,155.256 276.96,156.192 276.96,157.848 C276.96,159.792 275.448,161.088 270.408,161.088 C267.24,161.088 263.712,160.728 260.256,159.864 L260.256,167.496 Z" id="Path" fill-rule="nonzero"></path>
            <path d="M316.488,132.576 C313.968,131.928 312.024,131.712 309,131.712 C299.28,131.712 291.216,138.84 291.216,150.792 C291.216,162.816 298.128,168.432 308.784,168.432 C311.592,168.432 313.968,168.144 316.344,167.424 L316.344,159.864 C313.896,160.512 311.952,160.8 309.648,160.8 C304.248,160.8 300.216,157.704 300.216,150.432 C300.216,143.736 303.96,139.92 309.576,139.92 C311.808,139.92 313.68,140.136 315.768,140.568 L316.488,132.576 Z" id="Path" fill-rule="nonzero"></path>
            <path d="M344.568,168 L353.424,168 L353.424,144.6 C353.424,136.32 348.744,131.856 341.04,131.856 C337.8,131.856 335.064,132.648 331.896,134.664 L331.896,117.672 L323.04,118.104 L323.04,168 L331.896,168 L331.896,141.144 C334.128,140.28 336,139.992 338.376,139.992 C342.408,139.992 344.568,141.792 344.568,146.472 L344.568,168 Z" id="Path" fill-rule="nonzero"></path>
            <path d="M389.64,144.672 C389.64,136.464 384.96,131.856 374.808,131.856 C370.2,131.856 366.384,132.648 361.92,134.52 L363.072,141.936 C366.888,140.352 369.696,139.776 373.152,139.776 C379.056,139.776 381.072,141.864 381.072,145.536 L381.072,147.12 C379.704,147.12 378.048,147.048 376.248,147.048 C364.944,147.048 359.976,151.656 359.976,158.424 C359.976,164.4 363.936,168.432 371.352,168.432 C375.6,168.432 378.552,167.568 381.36,165.768 L381.36,168 L389.64,168 L389.64,144.672 Z M368.976,157.704 C368.976,155.04 371.136,153.24 376.536,153.24 C377.904,153.24 379.704,153.312 381.072,153.384 L381.072,159.936 C378.768,161.016 376.752,161.52 374.016,161.52 C370.848,161.52 368.976,160.08 368.976,157.704 Z" id="Shape" fill-rule="nonzero"></path>
            <path d="M398.856,181.752 L407.712,181.752 L407.712,168 C409.08,168.288 410.16,168.432 411.888,168.432 C423.48,168.432 431.328,161.52 431.328,148.848 C431.328,137.472 425.64,131.856 416.64,131.856 C413.04,131.856 409.872,133.08 407.424,134.88 L407.424,132.144 L398.856,132.504 L398.856,181.752 Z M411.672,160.944 C410.16,160.944 409.368,160.872 407.64,160.584 L407.64,141.144 C409.944,140.28 411.528,139.992 413.976,139.992 C419.088,139.992 422.328,143.016 422.328,149.496 C422.328,157.416 418.152,160.944 411.672,160.944 Z" id="Shape" fill-rule="nonzero"></path>
        </g>
        <g id="Group" stroke-width="1" transform="translate(564, 32)">
            <path d="M226.81003,87.559178 L121.778575,53.3559039 C120.331861,52.8813654 118.776643,52.8813654 117.329929,53.3559039 L12.2623061,87.559178 C10.6347526,88.1067224 10.5624169,90.369906 12.1538026,90.9904563 L32.6971449,99.0211076 L32.6971449,124.828701 C30.4909057,126.836364 29.0803593,129.720098 29.0803593,132.932358 C29.0803593,135.706583 30.165395,138.225287 31.8652842,140.159944 C26.6932808,148.37311 20.2915702,162.244235 19.9298917,168.559248 C19.4958774,176.078858 29.0803593,179.218112 33.7460128,180.05768 C38.4116662,180.933751 49.4790302,180.349704 50.5640659,171.114455 C51.3959266,163.923372 48.5024981,148.008081 47.1642874,141.255033 L47.1642874,140.999512 C49.3705267,138.99185 50.7810731,136.108116 50.7810731,132.895855 C50.7810731,129.683595 49.3705267,126.799861 47.1642874,124.792198 L47.1642874,104.642564 L103.911654,126.836364 C103.911654,127.055381 103.80315,127.858447 102.537275,127.785441 L61.63143,121.214908 L61.63143,158.192407 L61.63143,158.192407 C61.63143,158.192407 61.63143,158.374922 61.63143,158.447928 C61.63143,172.574573 87.5276151,184 119.5,184 C151.472385,184 177.36857,172.574573 177.36857,158.447928 C177.36857,158.374922 177.36857,158.265413 177.36857,158.192407 L177.36857,158.192407 L177.36857,110.300522 L226.846197,90.9539533 C228.437583,90.333403 228.365247,88.0337165 226.737694,87.522675" id="Path" fill="#154273" fill-rule="nonzero"></path>
            <g id="icon-data"></g>
        </g>
    </g>
</svg>