<?xml version="1.0" encoding="UTF-8"?>
<svg width="850px" height="300px" viewBox="0 0 850 300" version="1.1" xmlns="http://www.w3.org/2000/svg" xmlns:xlink="http://www.w3.org/1999/xlink">
    <title>watermerk-prio1-cloud</title>
    <defs>
        <path d="M0,0 L850,0 L850,300 L0,300 L0,0 Z" id="path-1"></path>
        <path d="M0,0 L850,0 L850,300 L0,300 L0,0 Z" id="path-2"></path>
        <path d="M0,0 L253,0 L253,250 L0,250 L0,0 Z" id="path-3"></path>
        <rect id="path-4" x="0" y="0" width="249.107692" height="250"></rect>
        <rect id="path-6" x="0" y="0" width="249.107692" height="250"></rect>
    </defs>
    <g id="watermerk-prio1-cloud" stroke="none" fill="none" xlink:href="#path-1" fill-rule="evenodd">
        <g id="achtergrond" xlink:href="#path-2">
            <path d="M0,0 L700,0 C782.842712,-2.84217094e-14 850,67.1572875 850,150 L850,300 L850,300 L0,300 L0,0 Z" id="icon-background" fill="#F9B729" opacity="0.9"></path>
            <rect id="Rectangle-2" fill-opacity="0" fill="#D8D8D8" x="581" y="49" width="200" height="200" rx="100"></rect>
        </g>
        <g id="text-outline" stroke-width="1" transform="translate(63, 42)" fill="#154273">
            <path d="M172.056,123.72 C168.168,124.44 166.08,124.656 162.048,124.656 C154.92,124.656 148.08,119.688 148.08,108.96 C148.08,97.872 154.488,92.4 162.408,92.4 C165.864,92.4 167.664,92.472 171.336,93.12 L171.984,85.2 C168.744,84.552 166.296,84.264 162.696,84.264 C149.16,84.264 138.216,92.76 138.216,109.824 C138.216,125.088 148.296,132.504 161.544,132.504 C166.368,132.504 167.952,132.288 172.056,131.352 L172.056,123.72 Z" id="Path" fill-rule="nonzero"></path>
            <polygon id="Path" fill-rule="nonzero" points="187.032 81.672 178.176 82.104 178.176 132 187.032 132"></polygon>
            <path d="M229.8,113.496 C229.8,101.688 222.744,95.64 212.808,95.64 C203.16,95.64 194.808,103.128 194.808,114.864 C194.808,126.6 201.864,132.648 211.8,132.648 C221.448,132.648 229.8,125.232 229.8,113.496 Z M220.8,113.712 C220.8,120.984 216.984,124.872 212.304,124.872 C207.192,124.872 203.808,121.56 203.808,114.576 C203.808,107.232 207.624,103.416 212.304,103.416 C217.344,103.416 220.8,106.8 220.8,113.712 Z" id="Shape" fill-rule="nonzero"></path>
            <path d="M245.784,96.144 L237,96.504 L237,119.472 C237,127.896 241.032,132.72 249.384,132.72 C252.984,132.72 255.216,131.568 258.384,129.552 L258.384,132 L266.88,132 L266.88,96.144 L258.096,96.504 L258.096,123.072 C255.792,124.08 254.208,124.512 251.688,124.512 C247.512,124.512 245.784,122.64 245.784,117.744 L245.784,96.144 Z" id="Path" fill-rule="nonzero"></path>
            <path d="M307.272,81.672 L298.416,82.104 L298.416,96.36 C296.76,96 295.248,95.856 293.52,95.856 C282.72,95.856 274.656,103.2 274.656,114.936 C274.656,126.528 280.488,132.432 289.488,132.432 C293.016,132.432 296.184,131.352 298.704,129.552 L298.704,132 L307.272,132 L307.272,81.672 Z M293.664,103.344 C295.464,103.344 296.832,103.488 298.488,103.704 L298.488,123.36 C296.184,124.44 294.672,124.8 292.224,124.8 C287.184,124.8 283.656,121.848 283.656,114.504 C283.656,107.52 287.616,103.344 293.664,103.344 Z" id="Shape" fill-rule="nonzero"></path>
        </g>
        <g id="Group" stroke-width="1" transform="translate(555, 25)">
            <g id="icon-data" xlink:href="#path-3">
                <g id="SVG_wolk_Donkerblauw" transform="translate(1.9462, 0)">
                    <mask id="mask-5" fill="white">
                        <use xlink:href="#path-4"></use>
                    </mask>
                    <g id="Rectangle"></g>
                    <g id="Clipped" mask="url(#mask-5)">
                        <mask id="mask-7" fill="white">
                            <use xlink:href="#path-6"></use>
                        </mask>
                        <g id="Rectangle"></g>
                        <path d="M195.129819,91.001406 C187.307502,78.0346821 172.869297,69.6375566 156.407407,70.6139666 L155.979321,70.6139666 C147.923502,60.8889236 136.248403,55.3429152 123.327961,55.3429152 C110.407518,55.3429152 98.4989172,61.0842056 90.676601,70.4967974 C89.8982611,70.4967974 89.0420872,70.3796282 88.2637473,70.3796282 C72.6969488,70.3796282 59.1538341,78.5814716 51.6428539,90.9623496 C31.0168459,93.9306358 15.0219605,111.779409 15.0219605,133.260428 C15.0219605,181.768474 96.6698184,181.768474 123.366878,181.768474 C153.021629,181.768474 231.711795,181.768474 231.711795,133.260428 C231.711795,111.779409 215.833661,93.9696922 195.207653,90.9623496 M123.405795,162.162162 C93.7510437,162.162162 35.3755495,158.959538 35.3755495,133.260428 C35.3755495,117.989377 50.358593,106.584909 65.7308065,112.130917 C66.5091464,94.3211998 86.5903164,84.5571005 101.145273,94.633651 C102.779787,83.7759725 112.158783,75.4960162 123.444712,75.4960162 C143.525882,75.4960162 155.979321,101.273239 138.544506,121.660678 C138.894759,122.441806 140.295771,122.441806 142.163787,121.113888 C144.382056,119.551633 157.380332,108.693954 157.497083,90.6498985 C170.612111,89.9859397 180.652696,100.06249 181.236451,112.130917 C196.569748,106.584909 211.552791,117.989377 211.552791,133.260428 C211.552791,159.271989 153.177297,162.162162 123.405795,162.162162" id="Shape" fill="#154273" fill-rule="nonzero" mask="url(#mask-7)"></path>
                    </g>
                </g>
            </g>
        </g>
    </g>
</svg>