<?xml version="1.0" encoding="UTF-8"?>
<svg width="850px" height="300px" viewBox="0 0 850 300" version="1.1" xmlns="http://www.w3.org/2000/svg" xmlns:xlink="http://www.w3.org/1999/xlink">
    <title>watermerk-prio3-ai</title>
    <defs>
        <path d="M0,0 L850,0 L850,300 L0,300 L0,0 Z" id="path-1"></path>
        <path d="M0,0 L850,0 L850,300 L0,300 L0,0 Z" id="path-2"></path>
        <path d="M0,0 L218,0 L218,216 L0,216 L0,0 Z" id="path-3"></path>
        <rect id="path-4" x="0" y="0" width="214.646154" height="216"></rect>
        <rect id="path-6" x="0" y="0" width="214.646154" height="216"></rect>
    </defs>
    <g id="watermerk-prio3-ai" stroke="none" fill="none" xlink:href="#path-1" fill-rule="evenodd">
        <g id="achtergrond" xlink:href="#path-2">
            <path d="M0,0 L700,0 C782.842712,-2.84217094e-14 850,67.1572875 850,150 L850,300 L850,300 L0,300 L0,0 Z" id="icon-background" fill="#F9B729" opacity="0.9"></path>
            <rect id="Rectangle-2" fill-opacity="0" fill="#D8D8D8" x="581" y="49" width="200" height="200" rx="100"></rect>
        </g>
        <g id="Group" stroke-width="1" transform="translate(63, 42)">
            <g id="icon-data" transform="translate(508, 0)" xlink:href="#path-3">
                <g id="SVG_half-tandwiel-met-half-brein-ernaast_Donkerblauw" transform="translate(1.6769, 0)">
                    <mask id="mask-5" fill="white">
                        <use xlink:href="#path-4"></use>
                    </mask>
                    <g id="Rectangle"></g>
                    <g id="Clipped" mask="url(#mask-5)">
                        <mask id="mask-7" fill="white">
                            <use xlink:href="#path-6"></use>
                        </mask>
                        <g id="Rectangle"></g>
                        <g id="Group" mask="url(#mask-7)" fill="#154273" fill-rule="nonzero">
                            <g transform="translate(6.7412, 16.586)">
                                <path d="M78.2116923,4.10278053 L71.4369231,23.7452805 C66.2049231,25.2640305 61.2076923,27.3902805 56.5458462,30.0565305 L37.8649231,20.9440305 C35.6849231,19.8977805 33.1024615,20.3365305 31.392,22.0577805 C25.3550769,28.1327805 27.6021538,25.8715305 21.5652308,31.9465305 C19.8547692,33.6677805 19.4187692,36.2665305 20.4584615,38.4602805 L29.6144615,57.4277805 C27.0990769,62.0177805 25.1203077,66.9452805 23.6781538,72.1090305 L3.78984615,79.0615305 C1.50923077,79.8715305 2.97881378e-15,82.0315305 2.97881378e-15,84.4277805 L2.97881378e-15,98.4340305 C2.97881378e-15,100.864031 1.50923077,103.024031 3.78984615,103.800281 L23.7452308,110.752781 C25.1873846,115.849031 27.1661538,120.742781 29.6815385,125.299031 L20.492,144.367781 C19.4523077,146.561531 19.8883077,149.160281 21.5987692,150.881531 C27.6356923,156.956531 25.3886154,154.695281 31.4255385,160.770281 C33.136,162.491531 35.7184615,162.930281 37.8984615,161.884031 L56.7470769,152.670281 C61.3418462,155.269031 66.2384615,157.327781 71.4033846,158.846531 L78.2452308,178.691531 C79.0501538,180.986531 81.1966154,182.539031 83.5778462,182.539031 L93.8741538,182.539031 L93.8741538,118.987781 C92.7673846,119.122781 91.6606154,119.224031 90.5203077,119.224031 C75.2603077,119.224031 62.8846154,106.770281 62.8846154,91.4140305 C62.8846154,76.0577805 75.2603077,63.6040305 90.5203077,63.6040305 C91.6606154,63.6040305 92.7673846,63.7052805 93.8741538,63.8402805 L93.8741538,0.289030526 L83.5778462,0.289030526 C81.1630769,0.289030526 79.0166154,1.84153053 78.2452308,4.10278053" id="Path"></path>
                                <path d="M182.616923,45.0415305 C179.464308,49.6315305 175.808615,52.1290305 173.964,53.2427805 C172.723077,54.0190305 172.085846,53.6815305 171.884615,53.3440305 C173.628615,50.2052805 177.049538,46.7290305 177.921538,39.2702805 C179.766154,23.5090305 168.765538,13.4852805 154.276923,16.6577805 C146.898462,18.2777805 143.812923,22.2265305 140.928615,24.3865305 C140.559692,24.1840305 140.190769,23.6102805 140.794462,22.2265305 C141.800615,19.9652805 144.316,15.0715305 149.682154,11.0215305 C142.639077,2.41528053 131.772615,-1.93846947 121.576923,0.829030526 C115.305231,2.55028053 110.408615,6.66778053 107.323077,12.1015305 L107.323077,68.0252805 C111.146462,63.5365305 116.848,60.7352805 121.610462,60.2627805 C123.220308,60.0940305 124.461231,60.0940305 124.327077,61.2415305 C111.381231,68.4640305 107.390154,82.4027805 107.390154,93.7090305 C107.390154,93.7090305 107.390154,93.6415305 107.323077,93.6077805 L107.323077,105.116531 C116.445538,101.775281 129.626154,107.040281 132.342769,119.494031 C132.879385,121.957781 131.705538,122.126531 131.705538,122.126531 C131.705538,122.059031 129.357846,116.760281 123.354462,113.689031 C118.156,111.056531 112.387385,111.191531 107.323077,113.554031 L107.323077,170.692781 C110.408615,176.092781 115.338769,180.210281 121.576923,181.931531 C132.409846,184.901531 146.06,180.851531 152.935385,166.777781 C147.267385,164.077781 144.215385,160.264031 142.940923,158.509031 C142.169538,157.429031 142.437846,156.889031 142.739692,156.686531 C145.624,158.002781 148.877231,160.736531 155.283077,161.344031 C173.360308,163.031531 186.406769,146.527781 180.537538,131.509031 C178.558769,126.412781 175.272,124.185281 173.360308,121.957781 C173.528,121.620281 174.064615,121.282781 175.372615,121.755281 C176.982462,122.362781 180.000923,123.611531 183.086462,126.109031 C195.998769,119.392781 201.599692,102.112781 192.879692,86.1490305 C203.679077,69.4765305 196.803692,51.0152805 182.616923,45.0415305 M119.296308,32.4190305 C119.799385,31.3390305 120.637846,30.4277805 121.107385,30.9002805 C121.107385,36.0302805 125.668615,46.9652805 141.398154,42.6452805 C146.227692,41.2952805 149.849846,39.0002805 154.176308,36.0302805 C154.746462,36.1315305 154.78,36.7390305 154.243385,37.6840305 C151.493231,42.5440305 146.764308,49.1590305 134.757538,49.9690305 C120.805538,51.0490305 115.808308,39.7765305 119.296308,32.4190305 M131.772615,92.9327805 C126.272308,88.5790305 126.741846,74.8765305 136.132615,69.5440305 C141.465231,66.5402805 149.145538,68.5315305 154.914154,70.0502805 C163.701231,72.3115305 169.872308,72.1427805 177.351385,68.8015305 C177.955077,69.9490305 177.284308,70.9952805 176.445846,71.9740305 C172.354154,76.6652805 164.003077,77.9477805 157.027077,77.3065305 C148.575385,76.4965305 145.959385,73.7965305 139.318769,76.8340305 C130.900615,80.6477805 134.053231,93.0677805 134.120308,93.2027805 C133.516615,94.2490305 132.510462,93.5065305 131.772615,92.9665305 M159.609538,143.186531 C158.569846,140.520281 155.249538,137.044031 150.453538,135.795281 C145.456308,134.479031 139.117538,135.559031 133.751385,139.474031 C124.360615,146.291531 124.729538,154.729031 124.729538,154.796531 C124.729538,154.796531 123.253846,155.370281 123.186769,152.501531 C123.086154,147.675281 125.165538,137.786531 131.537846,132.994031 C144.148308,123.476531 159.576,129.281531 160.682769,140.081531 C160.917538,142.207781 160.582154,143.287781 159.576,143.186531 M182.080308,109.942781 C174.836,101.437781 165.378154,97.3540305 156.691692,103.057781 C150.688308,107.006531 146.932,114.802781 146.932,114.870281 C146.932,114.870281 145.858769,115.005281 146.093538,112.744031 C146.462462,109.537781 148.642462,103.159031 152.968923,98.8390305 C162.192,89.6590305 178.927692,92.7977805 182.180923,106.871531 C182.583385,108.559031 182.851692,109.335281 182.046769,109.909031" id="Shape"></path>
                            </g>
                        </g>
                    </g>
                </g>
            </g>
            <g id="text-outline" fill="#154273" fill-rule="nonzero">
                <path d="M104.628,48.768 L90.516,48.768 L76.692,96 L86.412,96 L89.004,85.848 L104.988,85.848 L107.58,96 L118.38,96 L104.628,48.768 Z M103.044,78.36 L90.876,78.36 L96.708,56.544 L97.212,56.544 L103.044,78.36 Z" id="Shape"></path>
                <path d="M144.516,60.36 C143.22,60 141.996,59.856 140.34,59.856 C137.532,59.856 135.3,61.08 132.924,64.248 L132.924,60.144 L124.14,60.504 L124.14,96 L132.996,96 L132.996,70.656 C135.372,68.928 137.676,68.28 139.908,68.28 C141.42,68.28 142.428,68.424 143.94,68.784 L144.516,60.36 Z" id="Path"></path>
                <path d="M146.1,66.984 L150.42,66.984 L150.42,84.336 C150.42,92.4 154.884,96.432 161.868,96.432 C164.748,96.432 166.548,96.216 169.068,95.568 L169.068,88.224 C167.196,88.728 166.188,88.872 164.532,88.872 C161.364,88.872 159.204,87.072 159.204,83.112 L159.204,66.984 L168.204,66.984 L168.204,60.288 L159.204,60.288 L159.204,53.016 L150.42,53.736 L150.42,60.288 L146.1,60.288 L146.1,66.984 Z" id="Path"></path>
                <path d="M183.9,60.144 L175.044,60.504 L175.044,96 L183.9,96 L183.9,60.144 Z M174.324,50.568 C174.324,53.376 176.124,55.464 179.436,55.464 C182.748,55.464 184.548,53.16 184.548,50.568 C184.548,47.688 182.748,45.528 179.436,45.528 C176.124,45.528 174.324,47.904 174.324,50.568 Z" id="Shape"></path>
                <path d="M226.524,60.144 L217.74,60.288 L203.772,60.288 L203.772,57.912 C203.772,53.88 205.5,52.44 211.692,52.44 C217.668,52.44 221.268,52.584 226.524,52.872 L227.1,46.104 C221.988,45.672 217.308,45.528 211.692,45.528 C199.164,45.528 194.988,49.632 194.988,57.984 L194.988,60.288 L190.38,60.288 L190.38,66.984 L194.988,66.984 L194.988,96 L203.844,96 L203.844,66.984 L217.668,66.984 L217.668,96 L226.524,96 L226.524,60.144 Z" id="Path"></path>
                <path d="M259.572,60.576 C257.052,59.928 255.108,59.712 252.084,59.712 C242.364,59.712 234.3,66.84 234.3,78.792 C234.3,90.816 241.212,96.432 251.868,96.432 C254.676,96.432 257.052,96.144 259.428,95.424 L259.428,87.864 C256.98,88.512 255.036,88.8 252.732,88.8 C247.332,88.8 243.3,85.704 243.3,78.432 C243.3,71.736 247.044,67.92 252.66,67.92 C254.892,67.92 256.764,68.136 258.852,68.568 L259.572,60.576 Z" id="Path"></path>
                <path d="M274.98,60.144 L266.124,60.504 L266.124,96 L274.98,96 L274.98,60.144 Z M265.404,50.568 C265.404,53.376 267.204,55.464 270.516,55.464 C273.828,55.464 275.628,53.16 275.628,50.568 C275.628,47.688 273.828,45.528 270.516,45.528 C267.204,45.528 265.404,47.904 265.404,50.568 Z" id="Shape"></path>
                <path d="M288.516,50.784 C288.516,53.736 289.956,55.464 292.836,55.464 C295.788,55.464 297.228,53.304 297.228,50.784 C297.228,47.832 295.788,46.032 292.836,46.032 C289.956,46.032 288.516,48.12 288.516,50.784 Z M301.26,50.784 C301.26,53.736 302.7,55.464 305.58,55.464 C308.532,55.464 309.972,53.304 309.972,50.784 C309.972,47.832 308.532,46.032 305.58,46.032 C302.7,46.032 301.26,48.12 301.26,50.784 Z M282.756,78.216 C282.756,90.6 289.812,96.432 300.972,96.432 C305.796,96.432 308.532,95.784 312.348,94.632 L312.348,87.432 C308.892,88.512 306.156,89.016 302.124,89.016 C295.716,89.016 292.332,86.424 291.252,80.736 L313.14,80.736 C313.356,79.152 313.428,76.632 313.428,74.256 C313.428,65.112 307.884,59.64 299.1,59.64 C290.028,59.64 282.756,66.048 282.756,78.216 Z M291.252,74.4 C291.9,69.216 294.78,66.408 298.452,66.408 C302.412,66.408 304.932,69.72 304.932,74.4 L291.252,74.4 Z" id="Shape"></path>
                <polygon id="Path" points="329.916 45.672 321.06 46.104 321.06 96 329.916 96"></polygon>
                <path d="M337.692,78.216 C337.692,90.6 344.748,96.432 355.908,96.432 C360.732,96.432 363.468,95.784 367.284,94.632 L367.284,87.432 C363.828,88.512 361.092,89.016 357.06,89.016 C350.652,89.016 347.268,86.424 346.188,80.736 L368.076,80.736 C368.292,79.152 368.364,76.632 368.364,74.256 C368.364,65.112 362.82,59.64 354.036,59.64 C344.964,59.64 337.692,66.048 337.692,78.216 Z M346.188,74.4 C346.836,69.216 349.716,66.408 353.388,66.408 C357.348,66.408 359.868,69.72 359.868,74.4 L346.188,74.4 Z" id="Shape"></path>
                <polygon id="Path" points="52.608 120.768 43.248 120.768 43.248 168 52.608 168"></polygon>
                <path d="M84.936,168 L93.792,168 L93.792,144.6 C93.792,136.32 89.112,131.856 81.408,131.856 C77.808,131.856 75.072,132.72 71.976,134.808 L71.976,132.144 L63.408,132.504 L63.408,168 L72.264,168 L72.264,141.144 C74.64,140.28 76.296,139.992 78.744,139.992 C82.776,139.992 84.936,141.792 84.936,146.472 L84.936,168 Z" id="Path"></path>
                <path d="M99.984,138.984 L104.304,138.984 L104.304,156.336 C104.304,164.4 108.768,168.432 115.752,168.432 C118.632,168.432 120.432,168.216 122.952,167.568 L122.952,160.224 C121.08,160.728 120.072,160.872 118.416,160.872 C115.248,160.872 113.088,159.072 113.088,155.112 L113.088,138.984 L122.088,138.984 L122.088,132.288 L113.088,132.288 L113.088,125.016 L104.304,125.736 L104.304,132.288 L99.984,132.288 L99.984,138.984 Z" id="Path"></path>
                <path d="M126.912,150.216 C126.912,162.6 133.968,168.432 145.128,168.432 C149.952,168.432 152.688,167.784 156.504,166.632 L156.504,159.432 C153.048,160.512 150.312,161.016 146.28,161.016 C139.872,161.016 136.488,158.424 135.408,152.736 L157.296,152.736 C157.512,151.152 157.584,148.632 157.584,146.256 C157.584,137.112 152.04,131.64 143.256,131.64 C134.184,131.64 126.912,138.048 126.912,150.216 Z M135.408,146.4 C136.056,141.216 138.936,138.408 142.608,138.408 C146.568,138.408 149.088,141.72 149.088,146.4 L135.408,146.4 Z" id="Shape"></path>
                <polygon id="Path" points="174.072 117.672 165.216 118.104 165.216 168 174.072 168"></polygon>
                <polygon id="Path" points="192.72 117.672 183.864 118.104 183.864 168 192.72 168"></polygon>
                <path d="M211.368,132.144 L202.512,132.504 L202.512,168 L211.368,168 L211.368,132.144 Z M201.792,122.568 C201.792,125.376 203.592,127.464 206.904,127.464 C210.216,127.464 212.016,125.16 212.016,122.568 C212.016,119.688 210.216,117.528 206.904,117.528 C203.592,117.528 201.792,119.904 201.792,122.568 Z" id="Shape"></path>
                <path d="M227.424,158.424 C227.424,157.632 228,156.768 228.864,156.336 C230.304,156.696 231.888,156.912 233.472,156.912 C243.48,156.912 248.88,152.592 248.88,145.104 C248.88,141.864 247.368,139.56 245.784,138.624 L245.784,138.408 L251.4,138.408 L251.4,132.648 L239.736,132.648 C237.864,132.144 236.136,131.856 234.12,131.856 C225.048,131.856 218.928,136.752 218.928,145.248 C218.928,149.784 221.16,152.88 224.544,154.536 L224.544,154.752 C221.808,155.832 220.224,157.992 220.224,160.296 C220.224,162.672 221.52,164.472 223.392,165.192 L223.392,165.408 C219.864,166.776 217.632,169.656 217.632,173.04 C217.632,178.512 222.528,182.112 232.968,182.112 C246.144,182.112 251.904,176.568 251.904,169.728 C251.904,164.184 248.52,161.088 240.384,161.016 L232.104,160.944 C228.648,160.944 227.424,160.008 227.424,158.424 Z M233.976,151.152 C229.656,151.152 227.208,149.136 227.208,144.816 C227.208,140.208 230.016,137.976 234.048,137.976 C238.656,137.976 240.816,140.208 240.816,144.312 C240.816,149.064 238.368,151.152 233.976,151.152 Z M225.552,171.168 C225.552,169.656 226.2,168.432 227.352,167.568 L239.376,167.928 C242.688,168 244.056,169.152 244.056,171.168 C244.056,173.76 241.176,175.704 233.688,175.704 C228.144,175.704 225.552,173.976 225.552,171.168 Z" id="Shape"></path>
                <path d="M255.864,150.216 C255.864,162.6 262.92,168.432 274.08,168.432 C278.904,168.432 281.64,167.784 285.456,166.632 L285.456,159.432 C282,160.512 279.264,161.016 275.232,161.016 C268.824,161.016 265.44,158.424 264.36,152.736 L286.248,152.736 C286.464,151.152 286.536,148.632 286.536,146.256 C286.536,137.112 280.992,131.64 272.208,131.64 C263.136,131.64 255.864,138.048 255.864,150.216 Z M264.36,146.4 C265.008,141.216 267.888,138.408 271.56,138.408 C275.52,138.408 278.04,141.72 278.04,146.4 L264.36,146.4 Z" id="Shape"></path>
                <path d="M315.696,168 L324.552,168 L324.552,144.6 C324.552,136.32 319.872,131.856 312.168,131.856 C308.568,131.856 305.832,132.72 302.736,134.808 L302.736,132.144 L294.168,132.504 L294.168,168 L303.024,168 L303.024,141.144 C305.4,140.28 307.056,139.992 309.504,139.992 C313.536,139.992 315.696,141.792 315.696,146.472 L315.696,168 Z" id="Path"></path>
                <path d="M330.744,138.984 L335.064,138.984 L335.064,156.336 C335.064,164.4 339.528,168.432 346.512,168.432 C349.392,168.432 351.192,168.216 353.712,167.568 L353.712,160.224 C351.84,160.728 350.832,160.872 349.176,160.872 C346.008,160.872 343.848,159.072 343.848,155.112 L343.848,138.984 L352.848,138.984 L352.848,132.288 L343.848,132.288 L343.848,125.016 L335.064,125.736 L335.064,132.288 L330.744,132.288 L330.744,138.984 Z" id="Path"></path>
                <path d="M368.544,132.144 L359.688,132.504 L359.688,168 L368.544,168 L368.544,132.144 Z M358.968,122.568 C358.968,125.376 360.768,127.464 364.08,127.464 C367.392,127.464 369.192,125.16 369.192,122.568 C369.192,119.688 367.392,117.528 364.08,117.528 C360.768,117.528 358.968,119.904 358.968,122.568 Z" id="Shape"></path>
                <path d="M376.32,150.216 C376.32,162.6 383.376,168.432 394.536,168.432 C399.36,168.432 402.096,167.784 405.912,166.632 L405.912,159.432 C402.456,160.512 399.72,161.016 395.688,161.016 C389.28,161.016 385.896,158.424 384.816,152.736 L406.704,152.736 C406.92,151.152 406.992,148.632 406.992,146.256 C406.992,137.112 401.448,131.64 392.664,131.64 C383.592,131.64 376.32,138.048 376.32,150.216 Z M384.816,146.4 C385.464,141.216 388.344,138.408 392.016,138.408 C395.976,138.408 398.496,141.72 398.496,146.4 L384.816,146.4 Z" id="Shape"></path>
            </g>
        </g>
    </g>
</svg>