<?xml version="1.0" encoding="UTF-8"?>
<svg width="850px" height="300px" viewBox="0 0 850 300" version="1.1" xmlns="http://www.w3.org/2000/svg" xmlns:xlink="http://www.w3.org/1999/xlink">
    <title>watermerk-prio5-weerbaarheid</title>
    <defs>
        <path d="M0,0 L850,0 L850,300 L0,300 L0,0 Z" id="path-1"></path>
        <path d="M0,0 L850,0 L850,300 L0,300 L0,0 Z" id="path-2"></path>
        <path d="M0,0 L200,0 L200,197.87234 L0,197.87234 L0,0 Z" id="path-3"></path>
        <rect id="path-4" x="0" y="0" width="200" height="197.87234"></rect>
        <rect id="path-6" x="0" y="0" width="200" height="197.87234"></rect>
    </defs>
    <g id="watermerk-prio5-weerbaarheid" stroke="none" fill="none" xlink:href="#path-1" fill-rule="evenodd">
        <g id="achtergrond" xlink:href="#path-2">
            <path d="M0,0 L700,0 C782.842712,-2.84217094e-14 850,67.1572875 850,150 L850,300 L850,300 L0,300 L0,0 Z" id="icon-background" fill="#F9B729" opacity="0.9"></path>
            <rect id="Rectangle-2" fill-opacity="0" fill="#D8D8D8" x="581" y="49" width="200" height="200" rx="100"></rect>
        </g>
        <g id="text-outline" stroke-width="1" transform="translate(62, 42)" fill="#154273">
            <path d="M123.132,60 C138.972,60 148.692,52.152 148.692,35.016 C148.692,20.904 139.836,12.768 123.564,12.768 L109.812,12.768 L109.812,60 L123.132,60 Z M119.172,20.4 L122.988,20.4 C132.78,20.4 138.828,25.656 138.828,35.448 C138.828,47.472 132.852,52.368 123.564,52.368 L119.172,52.368 L119.172,20.4 Z" id="Shape" fill-rule="nonzero"></path>
            <path d="M165.828,24.144 L156.972,24.504 L156.972,60 L165.828,60 L165.828,24.144 Z M156.252,14.568 C156.252,17.376 158.052,19.464 161.364,19.464 C164.676,19.464 166.476,17.16 166.476,14.568 C166.476,11.688 164.676,9.528 161.364,9.528 C158.052,9.528 156.252,11.904 156.252,14.568 Z" id="Shape" fill-rule="nonzero"></path>
            <path d="M181.884,50.424 C181.884,49.632 182.46,48.768 183.324,48.336 C184.764,48.696 186.348,48.912 187.932,48.912 C197.94,48.912 203.34,44.592 203.34,37.104 C203.34,33.864 201.828,31.56 200.244,30.624 L200.244,30.408 L205.86,30.408 L205.86,24.648 L194.196,24.648 C192.324,24.144 190.596,23.856 188.58,23.856 C179.508,23.856 173.388,28.752 173.388,37.248 C173.388,41.784 175.62,44.88 179.004,46.536 L179.004,46.752 C176.268,47.832 174.684,49.992 174.684,52.296 C174.684,54.672 175.98,56.472 177.852,57.192 L177.852,57.408 C174.324,58.776 172.092,61.656 172.092,65.04 C172.092,70.512 176.988,74.112 187.428,74.112 C200.604,74.112 206.364,68.568 206.364,61.728 C206.364,56.184 202.98,53.088 194.844,53.016 L186.564,52.944 C183.108,52.944 181.884,52.008 181.884,50.424 Z M188.436,43.152 C184.116,43.152 181.668,41.136 181.668,36.816 C181.668,32.208 184.476,29.976 188.508,29.976 C193.116,29.976 195.276,32.208 195.276,36.312 C195.276,41.064 192.828,43.152 188.436,43.152 Z M180.012,63.168 C180.012,61.656 180.66,60.432 181.812,59.568 L193.836,59.928 C197.148,60 198.516,61.152 198.516,63.168 C198.516,65.76 195.636,67.704 188.148,67.704 C182.604,67.704 180.012,65.976 180.012,63.168 Z" id="Shape" fill-rule="nonzero"></path>
            <path d="M221.196,24.144 L212.34,24.504 L212.34,60 L221.196,60 L221.196,24.144 Z M211.62,14.568 C211.62,17.376 213.42,19.464 216.732,19.464 C220.044,19.464 221.844,17.16 221.844,14.568 C221.844,11.688 220.044,9.528 216.732,9.528 C213.42,9.528 211.62,11.904 211.62,14.568 Z" id="Shape" fill-rule="nonzero"></path>
            <path d="M227.964,30.984 L232.284,30.984 L232.284,48.336 C232.284,56.4 236.748,60.432 243.732,60.432 C246.612,60.432 248.412,60.216 250.932,59.568 L250.932,52.224 C249.06,52.728 248.052,52.872 246.396,52.872 C243.228,52.872 241.068,51.072 241.068,47.112 L241.068,30.984 L250.068,30.984 L250.068,24.288 L241.068,24.288 L241.068,17.016 L232.284,17.736 L232.284,24.288 L227.964,24.288 L227.964,30.984 Z" id="Path" fill-rule="nonzero"></path>
            <path d="M283.908,36.672 C283.908,28.464 279.228,23.856 269.076,23.856 C264.468,23.856 260.652,24.648 256.188,26.52 L257.34,33.936 C261.156,32.352 263.964,31.776 267.42,31.776 C273.324,31.776 275.34,33.864 275.34,37.536 L275.34,39.12 C273.972,39.12 272.316,39.048 270.516,39.048 C259.212,39.048 254.244,43.656 254.244,50.424 C254.244,56.4 258.204,60.432 265.62,60.432 C269.868,60.432 272.82,59.568 275.628,57.768 L275.628,60 L283.908,60 L283.908,36.672 Z M263.244,49.704 C263.244,47.04 265.404,45.24 270.804,45.24 C272.172,45.24 273.972,45.312 275.34,45.384 L275.34,51.936 C273.036,53.016 271.02,53.52 268.284,53.52 C265.116,53.52 263.244,52.08 263.244,49.704 Z" id="Shape" fill-rule="nonzero"></path>
            <polygon id="Path" fill-rule="nonzero" points="301.98 9.672 293.124 10.104 293.124 60 301.98 60"></polygon>
            <path d="M309.756,42.216 C309.756,54.6 316.812,60.432 327.972,60.432 C332.796,60.432 335.532,59.784 339.348,58.632 L339.348,51.432 C335.892,52.512 333.156,53.016 329.124,53.016 C322.716,53.016 319.332,50.424 318.252,44.736 L340.14,44.736 C340.356,43.152 340.428,40.632 340.428,38.256 C340.428,29.112 334.884,23.64 326.1,23.64 C317.028,23.64 309.756,30.048 309.756,42.216 Z M318.252,38.4 C318.9,33.216 321.78,30.408 325.452,30.408 C329.412,30.408 331.932,33.72 331.932,38.4 L318.252,38.4 Z" id="Shape" fill-rule="nonzero"></path>
            <polygon id="Path" fill-rule="nonzero" points="64.956 96.288 55.74 96.288 50.124 125.088 49.764 125.088 41.916 96.288 33.132 96.288 34.932 102.912 27.732 125.088 27.372 125.088 21.972 96.288 11.82 96.288 20.892 132 32.34 132 38.388 112.488 38.604 112.488 43.788 132 55.74 132"></polygon>
            <path d="M68.124,114.216 C68.124,126.6 75.18,132.432 86.34,132.432 C91.164,132.432 93.9,131.784 97.716,130.632 L97.716,123.432 C94.26,124.512 91.524,125.016 87.492,125.016 C81.084,125.016 77.7,122.424 76.62,116.736 L98.508,116.736 C98.724,115.152 98.796,112.632 98.796,110.256 C98.796,101.112 93.252,95.64 84.468,95.64 C75.396,95.64 68.124,102.048 68.124,114.216 Z M76.62,110.4 C77.268,105.216 80.148,102.408 83.82,102.408 C87.78,102.408 90.3,105.72 90.3,110.4 L76.62,110.4 Z" id="Shape" fill-rule="nonzero"></path>
            <path d="M104.412,114.216 C104.412,126.6 111.468,132.432 122.628,132.432 C127.452,132.432 130.188,131.784 134.004,130.632 L134.004,123.432 C130.548,124.512 127.812,125.016 123.78,125.016 C117.372,125.016 113.988,122.424 112.908,116.736 L134.796,116.736 C135.012,115.152 135.084,112.632 135.084,110.256 C135.084,101.112 129.54,95.64 120.756,95.64 C111.684,95.64 104.412,102.048 104.412,114.216 Z M112.908,110.4 C113.556,105.216 116.436,102.408 120.108,102.408 C124.068,102.408 126.588,105.72 126.588,110.4 L112.908,110.4 Z" id="Shape" fill-rule="nonzero"></path>
            <path d="M163.092,96.36 C161.796,96 160.572,95.856 158.916,95.856 C156.108,95.856 153.876,97.08 151.5,100.248 L151.5,96.144 L142.716,96.504 L142.716,132 L151.572,132 L151.572,106.656 C153.948,104.928 156.252,104.28 158.484,104.28 C159.996,104.28 161.004,104.424 162.516,104.784 L163.092,96.36 Z" id="Path" fill-rule="nonzero"></path>
            <path d="M200.172,112.92 C200.172,101.688 194.556,95.856 185.484,95.856 C182.172,95.856 179.148,96.936 176.556,98.664 L176.556,81.672 L167.7,82.104 L167.7,131.64 C172.38,132.216 176.124,132.432 179.94,132.432 C192.108,132.432 200.172,125.376 200.172,112.92 Z M191.172,113.568 C191.172,121.776 186.924,124.944 180.444,124.944 C179.004,124.944 177.996,124.872 176.484,124.584 L176.484,105.144 C178.86,104.28 180.444,103.992 182.748,103.992 C187.86,103.992 191.172,106.944 191.172,113.568 Z" id="Shape" fill-rule="nonzero"></path>
            <path d="M234.948,108.672 C234.948,100.464 230.268,95.856 220.116,95.856 C215.508,95.856 211.692,96.648 207.228,98.52 L208.38,105.936 C212.196,104.352 215.004,103.776 218.46,103.776 C224.364,103.776 226.38,105.864 226.38,109.536 L226.38,111.12 C225.012,111.12 223.356,111.048 221.556,111.048 C210.252,111.048 205.284,115.656 205.284,122.424 C205.284,128.4 209.244,132.432 216.66,132.432 C220.908,132.432 223.86,131.568 226.668,129.768 L226.668,132 L234.948,132 L234.948,108.672 Z M214.284,121.704 C214.284,119.04 216.444,117.24 221.844,117.24 C223.212,117.24 225.012,117.312 226.38,117.384 L226.38,123.936 C224.076,125.016 222.06,125.52 219.324,125.52 C216.156,125.52 214.284,124.08 214.284,121.704 Z" id="Shape" fill-rule="nonzero"></path>
            <path d="M271.164,108.672 C271.164,100.464 266.484,95.856 256.332,95.856 C251.724,95.856 247.908,96.648 243.444,98.52 L244.596,105.936 C248.412,104.352 251.22,103.776 254.676,103.776 C260.58,103.776 262.596,105.864 262.596,109.536 L262.596,111.12 C261.228,111.12 259.572,111.048 257.772,111.048 C246.468,111.048 241.5,115.656 241.5,122.424 C241.5,128.4 245.46,132.432 252.876,132.432 C257.124,132.432 260.076,131.568 262.884,129.768 L262.884,132 L271.164,132 L271.164,108.672 Z M250.5,121.704 C250.5,119.04 252.66,117.24 258.06,117.24 C259.428,117.24 261.228,117.312 262.596,117.384 L262.596,123.936 C260.292,125.016 258.276,125.52 255.54,125.52 C252.372,125.52 250.5,124.08 250.5,121.704 Z" id="Shape" fill-rule="nonzero"></path>
            <path d="M300.756,96.36 C299.46,96 298.236,95.856 296.58,95.856 C293.772,95.856 291.54,97.08 289.164,100.248 L289.164,96.144 L280.38,96.504 L280.38,132 L289.236,132 L289.236,106.656 C291.612,104.928 293.916,104.28 296.148,104.28 C297.66,104.28 298.668,104.424 300.18,104.784 L300.756,96.36 Z" id="Path" fill-rule="nonzero"></path>
            <path d="M326.892,132 L335.748,132 L335.748,108.6 C335.748,100.32 331.068,95.856 323.364,95.856 C320.124,95.856 317.388,96.648 314.22,98.664 L314.22,81.672 L305.364,82.104 L305.364,132 L314.22,132 L314.22,105.144 C316.452,104.28 318.324,103.992 320.7,103.992 C324.732,103.992 326.892,105.792 326.892,110.472 L326.892,132 Z" id="Path" fill-rule="nonzero"></path>
            <path d="M342.948,114.216 C342.948,126.6 350.004,132.432 361.164,132.432 C365.988,132.432 368.724,131.784 372.54,130.632 L372.54,123.432 C369.084,124.512 366.348,125.016 362.316,125.016 C355.908,125.016 352.524,122.424 351.444,116.736 L373.332,116.736 C373.548,115.152 373.62,112.632 373.62,110.256 C373.62,101.112 368.076,95.64 359.292,95.64 C350.22,95.64 342.948,102.048 342.948,114.216 Z M351.444,110.4 C352.092,105.216 354.972,102.408 358.644,102.408 C362.604,102.408 365.124,105.72 365.124,110.4 L351.444,110.4 Z" id="Shape" fill-rule="nonzero"></path>
            <path d="M390.108,96.144 L381.252,96.504 L381.252,132 L390.108,132 L390.108,96.144 Z M380.532,86.568 C380.532,89.376 382.332,91.464 385.644,91.464 C388.956,91.464 390.756,89.16 390.756,86.568 C390.756,83.688 388.956,81.528 385.644,81.528 C382.332,81.528 380.532,83.904 380.532,86.568 Z" id="Shape" fill-rule="nonzero"></path>
            <path d="M430.5,81.672 L421.644,82.104 L421.644,96.36 C419.988,96 418.476,95.856 416.748,95.856 C405.948,95.856 397.884,103.2 397.884,114.936 C397.884,126.528 403.716,132.432 412.716,132.432 C416.244,132.432 419.412,131.352 421.932,129.552 L421.932,132 L430.5,132 L430.5,81.672 Z M416.892,103.344 C418.692,103.344 420.06,103.488 421.716,103.704 L421.716,123.36 C419.412,124.44 417.9,124.8 415.452,124.8 C410.412,124.8 406.884,121.848 406.884,114.504 C406.884,107.52 410.844,103.344 416.892,103.344 Z" id="Shape" fill-rule="nonzero"></path>
            <path d="M43.932,204.576 C58.116,204.576 67.332,195.72 67.332,180.456 L71.652,180.456 L71.652,173.472 L54.444,173.472 L54.444,180.456 L58.908,180.456 C58.908,190.752 53.364,196.656 45.3,196.656 C38.46,196.656 35.364,194.496 35.364,190.464 C35.364,186.36 38.892,183.264 46.092,183.264 L49.116,183.264 L49.116,175.632 L46.812,175.632 C39.972,175.632 36.732,173.256 36.732,169.296 C36.732,165.912 39.396,163.896 43.788,163.896 C46.74,163.896 49.188,164.184 51.78,164.76 L52.356,157.272 C49.764,156.48 47.316,156.12 43.716,156.12 C33.348,156.12 27.228,162.024 27.228,169.584 C27.228,174.84 30.18,178.224 35.436,179.52 L35.436,179.736 C28.884,181.752 25.5,186 25.5,190.968 C25.5,199.896 30.9,204.576 43.932,204.576 Z" id="Path" fill-rule="nonzero"></path>
            <path d="M118.956,180.672 C118.956,172.464 114.276,167.856 104.124,167.856 C99.516,167.856 95.7,168.648 91.236,170.52 L92.388,177.936 C96.204,176.352 99.012,175.776 102.468,175.776 C108.372,175.776 110.388,177.864 110.388,181.536 L110.388,183.12 C109.02,183.12 107.364,183.048 105.564,183.048 C94.26,183.048 89.292,187.656 89.292,194.424 C89.292,200.4 93.252,204.432 100.668,204.432 C104.916,204.432 107.868,203.568 110.676,201.768 L110.676,204 L118.956,204 L118.956,180.672 Z M98.292,193.704 C98.292,191.04 100.452,189.24 105.852,189.24 C107.22,189.24 109.02,189.312 110.388,189.384 L110.388,195.936 C108.084,197.016 106.068,197.52 103.332,197.52 C100.164,197.52 98.292,196.08 98.292,193.704 Z" id="Shape" fill-rule="nonzero"></path>
            <path d="M136.38,168.144 L127.596,168.504 L127.596,191.472 C127.596,199.896 131.628,204.72 139.98,204.72 C143.58,204.72 145.812,203.568 148.98,201.552 L148.98,204 L157.476,204 L157.476,168.144 L148.692,168.504 L148.692,195.072 C146.388,196.08 144.804,196.512 142.284,196.512 C138.108,196.512 136.38,194.64 136.38,189.744 L136.38,168.144 Z" id="Path" fill-rule="nonzero"></path>
            <path d="M164.244,174.984 L168.564,174.984 L168.564,192.336 C168.564,200.4 173.028,204.432 180.012,204.432 C182.892,204.432 184.692,204.216 187.212,203.568 L187.212,196.224 C185.34,196.728 184.332,196.872 182.676,196.872 C179.508,196.872 177.348,195.072 177.348,191.112 L177.348,174.984 L186.348,174.984 L186.348,168.288 L177.348,168.288 L177.348,161.016 L168.564,161.736 L168.564,168.288 L164.244,168.288 L164.244,174.984 Z" id="Path" fill-rule="nonzero"></path>
            <path d="M226.164,185.496 C226.164,173.688 219.108,167.64 209.172,167.64 C199.524,167.64 191.172,175.128 191.172,186.864 C191.172,198.6 198.228,204.648 208.164,204.648 C217.812,204.648 226.164,197.232 226.164,185.496 Z M217.164,185.712 C217.164,192.984 213.348,196.872 208.668,196.872 C203.556,196.872 200.172,193.56 200.172,186.576 C200.172,179.232 203.988,175.416 208.668,175.416 C213.708,175.416 217.164,178.8 217.164,185.712 Z" id="Shape" fill-rule="nonzero"></path>
            <path d="M255.468,204 L264.324,204 L264.324,180.6 C264.324,172.32 259.644,167.856 251.94,167.856 C248.34,167.856 245.604,168.72 242.508,170.808 L242.508,168.144 L233.94,168.504 L233.94,204 L242.796,204 L242.796,177.144 C245.172,176.28 246.828,175.992 249.276,175.992 C253.308,175.992 255.468,177.792 255.468,182.472 L255.468,204 Z" id="Path" fill-rule="nonzero"></path>
            <path d="M306.516,185.496 C306.516,173.688 299.46,167.64 289.524,167.64 C279.876,167.64 271.524,175.128 271.524,186.864 C271.524,198.6 278.58,204.648 288.516,204.648 C298.164,204.648 306.516,197.232 306.516,185.496 Z M297.516,185.712 C297.516,192.984 293.7,196.872 289.02,196.872 C283.908,196.872 280.524,193.56 280.524,186.576 C280.524,179.232 284.34,175.416 289.02,175.416 C294.06,175.416 297.516,178.8 297.516,185.712 Z" id="Shape" fill-rule="nonzero"></path>
            <path d="M356.628,204 L365.484,204 L365.484,180.672 C365.484,172.392 360.948,167.856 353.172,167.856 C348.852,167.856 345.252,169.296 341.94,171.816 C339.708,169.224 336.828,167.856 332.22,167.856 C328.692,167.856 326.1,168.648 322.86,170.808 L322.86,168.144 L314.292,168.504 L314.292,204 L323.148,204 L323.148,177.144 C325.452,176.28 326.82,175.992 329.34,175.992 C333.228,175.992 335.46,177.792 335.46,182.616 L335.46,204 L344.316,204 L344.316,177.144 C346.692,176.208 348.06,175.992 350.508,175.992 C354.468,175.992 356.628,177.864 356.628,182.616 L356.628,204 Z" id="Path" fill-rule="nonzero"></path>
            <path d="M383.556,168.144 L374.7,168.504 L374.7,204 L383.556,204 L383.556,168.144 Z M373.98,158.568 C373.98,161.376 375.78,163.464 379.092,163.464 C382.404,163.464 384.204,161.16 384.204,158.568 C384.204,155.688 382.404,153.528 379.092,153.528 C375.78,153.528 373.98,155.904 373.98,158.568 Z" id="Shape" fill-rule="nonzero"></path>
            <path d="M391.332,186.216 C391.332,198.6 398.388,204.432 409.548,204.432 C414.372,204.432 417.108,203.784 420.924,202.632 L420.924,195.432 C417.468,196.512 414.732,197.016 410.7,197.016 C404.292,197.016 400.908,194.424 399.828,188.736 L421.716,188.736 C421.932,187.152 422.004,184.632 422.004,182.256 C422.004,173.112 416.46,167.64 407.676,167.64 C398.604,167.64 391.332,174.048 391.332,186.216 Z M399.828,182.4 C400.476,177.216 403.356,174.408 407.028,174.408 C410.988,174.408 413.508,177.72 413.508,182.4 L399.828,182.4 Z" id="Shape" fill-rule="nonzero"></path>
        </g>
        <g id="icon" stroke-width="1" transform="translate(581, 50)">
            <g id="icon-data" xlink:href="#path-3">
                <g id="SVG_schild-met-vinkje-erop_Donkerblauw">
                    <mask id="mask-5" fill="white">
                        <use xlink:href="#path-4"></use>
                    </mask>
                    <g id="Rectangle"></g>
                    <g id="Clipped" mask="url(#mask-5)">
                        <mask id="mask-7" fill="white">
                            <use xlink:href="#path-6"></use>
                        </mask>
                        <g id="Rectangle"></g>
                        <path d="M165.09375,26.6200133 C157.34375,23.1881649 136.84375,16.0771277 100,16.0771277 C63.15625,16.0771277 42.65625,23.1881649 34.90625,26.6200133 C32.65625,27.609375 31.25,29.8045213 31.25,32.247008 L31.25,121.753324 C31.25,132.234375 35.75,142.220745 43.59375,149.300864 C64.4375,168.098737 87.875,178.332447 96.53125,181.733378 C98.75,182.599069 101.21875,182.599069 103.4375,181.733378 C112.09375,178.332447 135.53125,168.098737 156.375,149.300864 C164.21875,142.220745 168.71875,132.234375 168.71875,121.753324 L168.71875,32.247008 C168.71875,29.8354388 167.3125,27.609375 165.0625,26.6200133 M138.84375,63.0099734 L100.34375,126.081782 C99.28125,127.813165 97.34375,128.895279 95.3125,128.895279 L95.3125,128.895279 C93.25,128.895279 91.34375,127.813165 90.28125,126.050864 L65.0625,84.4358378 C63.5625,81.9624335 64.09375,78.8088431 66.34375,76.9537899 C68.5625,75.0987367 71.8125,75.1296543 74,77.015625 L94.8125,94.8550532 L129.4375,56.115359 C131.46875,53.8583777 134.90625,53.5182846 137.375,55.3115027 C139.8125,57.1047207 140.5,60.474734 138.90625,63.040891" id="Shape" fill="#154273" fill-rule="nonzero" mask="url(#mask-7)"></path>
                    </g>
                </g>
            </g>
        </g>
    </g>
</svg>