<?xml version="1.0" encoding="UTF-8"?>
<svg width="850px" height="300px" viewBox="0 0 850 300" version="1.1" xmlns="http://www.w3.org/2000/svg" xmlns:xlink="http://www.w3.org/1999/xlink">
    <title>watermerk-prio2-data</title>
    <defs>
        <path d="M0,0 L850,0 L850,300 L0,300 L0,0 Z" id="path-1"></path>
        <path d="M0,0 L850,0 L850,300 L0,300 L0,0 Z" id="path-2"></path>
        <path d="M0,0 L239,0 L239,237 L0,237 L0,0 Z" id="path-3"></path>
        <rect id="path-4" x="0" y="0" width="235.323077" height="237"></rect>
        <rect id="path-6" x="0" y="0" width="235.323077" height="237"></rect>
    </defs>
    <g id="watermerk-prio2-data" stroke="none" fill="none" xlink:href="#path-1" fill-rule="evenodd">
        <g id="achtergrond" xlink:href="#path-2">
            <path d="M0,0 L700,0 C782.842712,-2.84217094e-14 850,67.1572875 850,150 L850,300 L850,300 L0,300 L0,0 Z" id="icon-background" fill="#F9B729" opacity="0.9"></path>
            <rect id="Rectangle-2" fill-opacity="0" fill="#D8D8D8" x="581" y="49" width="200" height="200" rx="100"></rect>
        </g>
        <g id="text-outline" stroke-width="1" transform="translate(63, 42)" fill="#154273">
            <path d="M169.5,132 C185.34,132 195.06,124.152 195.06,107.016 C195.06,92.904 186.204,84.768 169.932,84.768 L156.18,84.768 L156.18,132 L169.5,132 Z M165.54,92.4 L169.356,92.4 C179.148,92.4 185.196,97.656 185.196,107.448 C185.196,119.472 179.22,124.368 169.932,124.368 L165.54,124.368 L165.54,92.4 Z" id="Shape" fill-rule="nonzero"></path>
            <path d="M230.34,108.672 C230.34,100.464 225.66,95.856 215.508,95.856 C210.9,95.856 207.084,96.648 202.62,98.52 L203.772,105.936 C207.588,104.352 210.396,103.776 213.852,103.776 C219.756,103.776 221.772,105.864 221.772,109.536 L221.772,111.12 C220.404,111.12 218.748,111.048 216.948,111.048 C205.644,111.048 200.676,115.656 200.676,122.424 C200.676,128.4 204.636,132.432 212.052,132.432 C216.3,132.432 219.252,131.568 222.06,129.768 L222.06,132 L230.34,132 L230.34,108.672 Z M209.676,121.704 C209.676,119.04 211.836,117.24 217.236,117.24 C218.604,117.24 220.404,117.312 221.772,117.384 L221.772,123.936 C219.468,125.016 217.452,125.52 214.716,125.52 C211.548,125.52 209.676,124.08 209.676,121.704 Z" id="Shape" fill-rule="nonzero"></path>
            <path d="M236.532,102.984 L240.852,102.984 L240.852,120.336 C240.852,128.4 245.316,132.432 252.3,132.432 C255.18,132.432 256.98,132.216 259.5,131.568 L259.5,124.224 C257.628,124.728 256.62,124.872 254.964,124.872 C251.796,124.872 249.636,123.072 249.636,119.112 L249.636,102.984 L258.636,102.984 L258.636,96.288 L249.636,96.288 L249.636,89.016 L240.852,89.736 L240.852,96.288 L236.532,96.288 L236.532,102.984 Z" id="Path" fill-rule="nonzero"></path>
            <path d="M292.476,108.672 C292.476,100.464 287.796,95.856 277.644,95.856 C273.036,95.856 269.22,96.648 264.756,98.52 L265.908,105.936 C269.724,104.352 272.532,103.776 275.988,103.776 C281.892,103.776 283.908,105.864 283.908,109.536 L283.908,111.12 C282.54,111.12 280.884,111.048 279.084,111.048 C267.78,111.048 262.812,115.656 262.812,122.424 C262.812,128.4 266.772,132.432 274.188,132.432 C278.436,132.432 281.388,131.568 284.196,129.768 L284.196,132 L292.476,132 L292.476,108.672 Z M271.812,121.704 C271.812,119.04 273.972,117.24 279.372,117.24 C280.74,117.24 282.54,117.312 283.908,117.384 L283.908,123.936 C281.604,125.016 279.588,125.52 276.852,125.52 C273.684,125.52 271.812,124.08 271.812,121.704 Z" id="Shape" fill-rule="nonzero"></path>
        </g>
        <g id="Group" stroke-width="1" transform="translate(561, 31)">
            <g id="icon-data" xlink:href="#path-3">
                <g id="SVG_digitale-uitwisseling_Donkerblauw" transform="translate(1.8385, 0)">
                    <mask id="mask-5" fill="white">
                        <use xlink:href="#path-4"></use>
                    </mask>
                    <g id="Rectangle"></g>
                    <g id="Clipped" mask="url(#mask-5)">
                        <mask id="mask-7" fill="white">
                            <use xlink:href="#path-6"></use>
                        </mask>
                        <g id="Rectangle"></g>
                        <g id="Group" mask="url(#mask-7)" fill="#154273" fill-rule="nonzero">
                            <g transform="translate(3.6861, 24.0703)">
                                <path d="M73.8969615,55.1395313 L73.8969615,59.0648438 C75.9192692,58.6945313 77.4635769,58.5834375 79.5226538,58.5834375 L79.5226538,75.9510938 L84.4865,75.9510938 L84.4865,53.9545313 L81.6920385,53.9545313 C79.1917308,53.9545313 76.5443462,54.361875 73.8601923,55.1395313" id="Path"></path>
                                <path d="M101.547423,53.5471875 C95.8481923,53.5471875 91.1049615,58.065 91.1049615,65.3601563 C91.1049615,72.6553125 95.0760385,76.3214062 100.995885,76.3214062 C106.584808,76.3214062 111.438346,71.840625 111.438346,64.5454687 C111.438346,57.2503125 107.356962,53.5471875 101.547423,53.5471875 M101.290038,72.0628125 C98.1646538,72.0628125 96.0320385,70.1371875 96.0320385,65.1009375 C96.0320385,60.583125 98.2381923,57.8057813 101.2165,57.8057813 C104.452192,57.8057813 106.4745,59.990625 106.4745,64.6565625 C106.4745,69.3225 104.231577,72.0628125 101.290038,72.0628125" id="Shape"></path>
                                <path d="M114.306346,55.1395313 L114.306346,59.0648438 C116.328654,58.6945313 117.872962,58.5834375 119.932038,58.5834375 L119.932038,75.9510938 L124.895885,75.9510938 L124.895885,53.9545313 L122.101423,53.9545313 C119.601115,53.9545313 116.953731,54.361875 114.269577,55.1395313" id="Path"></path>
                                <path d="M141.956808,53.5471875 C136.257577,53.5471875 131.514346,58.065 131.514346,65.3601563 C131.514346,72.6553125 135.485423,76.3214062 141.405269,76.3214062 C146.994192,76.3214062 151.847731,71.840625 151.847731,64.5454687 C151.847731,57.2503125 147.729577,53.5471875 141.956808,53.5471875 M141.699423,72.0628125 C138.574038,72.0628125 136.441423,70.1371875 136.441423,65.1009375 C136.441423,60.583125 138.647577,57.8057813 141.662654,57.8057813 C144.898346,57.8057813 146.920654,59.990625 146.920654,64.6565625 C146.920654,69.3225 144.677731,72.0628125 141.736192,72.0628125" id="Shape"></path>
                                <path d="M74.1911154,94.9851563 C74.1911154,102.5025 78.1621923,105.946406 84.0820385,105.946406 C89.6709615,105.946406 94.5245,101.465625 94.5245,94.1704688 C94.5245,86.8753125 90.4431154,83.1721875 84.6335769,83.1721875 C78.8240385,83.1721875 74.1911154,87.69 74.1911154,94.9851563 M89.5974231,94.2815625 C89.5974231,99.0215625 87.3545,101.687812 84.3761923,101.687812 C81.2508077,101.687812 79.1181923,99.7621875 79.1181923,94.7259375 C79.1181923,90.208125 81.3243462,87.4307812 84.3394231,87.4307812 C87.5751154,87.4307812 89.5974231,89.615625 89.5974231,94.2815625" id="Shape"></path>
                                <path d="M108.018808,105.539062 L108.018808,83.5425 L105.224346,83.5425 C102.724038,83.5425 100.076654,83.9498437 97.3557308,84.7275 L97.3557308,88.6528125 C99.3780385,88.2825 100.922346,88.1714062 102.981423,88.1714062 L102.981423,105.539062 L107.982038,105.539062 L108.018808,105.539062 Z" id="Path"></path>
                                <path d="M114.6005,94.9851563 C114.6005,102.5025 118.571577,105.946406 124.491423,105.946406 C130.080346,105.946406 134.933885,101.465625 134.933885,94.1704688 C134.933885,86.8753125 130.815731,83.1721875 125.042962,83.1721875 C119.270192,83.1721875 114.6005,87.69 114.6005,94.9851563 M130.006808,94.2815625 C130.006808,99.0215625 127.763885,101.687812 124.785577,101.687812 C121.660192,101.687812 119.527577,99.7621875 119.527577,94.7259375 C119.527577,90.208125 121.733731,87.4307812 124.748808,87.4307812 C127.9845,87.4307812 130.006808,89.615625 130.006808,94.2815625" id="Shape"></path>
                                <path d="M148.428192,105.539062 L148.428192,83.5425 L145.633731,83.5425 C143.133423,83.5425 140.486038,83.9498437 137.765115,84.7275 L137.765115,88.6528125 C139.787423,88.2825 141.331731,88.1714062 143.390808,88.1714062 L143.390808,105.539062 L148.391423,105.539062 L148.428192,105.539062 Z" id="Path"></path>
                                <path d="M73.8969615,118.277812 C75.9192692,117.9075 77.4635769,117.796406 79.5226538,117.796406 L79.5226538,135.164062 L84.4865,135.164062 L84.4865,113.1675 L81.6920385,113.1675 C79.1917308,113.1675 76.5443462,113.574844 73.8601923,114.3525 L73.8601923,118.240781 L73.8969615,118.277812 Z" id="Path"></path>
                                <path d="M91.1049615,124.610156 C91.1049615,132.1275 95.0760385,135.571406 100.995885,135.571406 C106.584808,135.571406 111.438346,131.090625 111.438346,123.795469 C111.438346,116.500313 107.320192,112.797188 101.547423,112.797188 C95.7746538,112.797188 91.1049615,117.315 91.1049615,124.610156 M101.253269,117.055781 C104.488962,117.055781 106.511269,119.240625 106.511269,123.906563 C106.511269,128.5725 104.268346,131.312813 101.290038,131.312813 C98.1646538,131.312813 96.0320385,129.387187 96.0320385,124.350937 C96.0320385,119.833125 98.2381923,117.055781 101.253269,117.055781" id="Shape"></path>
                                <path d="M114.306346,118.277812 C116.328654,117.9075 117.872962,117.796406 119.932038,117.796406 L119.932038,135.164062 L124.895885,135.164062 L124.895885,113.1675 L122.101423,113.1675 C119.601115,113.1675 116.953731,113.574844 114.269577,114.3525 L114.269577,118.240781 L114.306346,118.277812 Z" id="Path"></path>
                                <path d="M131.514346,124.610156 C131.514346,132.1275 135.485423,135.571406 141.405269,135.571406 C146.994192,135.571406 151.847731,131.090625 151.847731,123.795469 C151.847731,116.500313 147.729577,112.797188 141.956808,112.797188 C136.184038,112.797188 131.514346,117.315 131.514346,124.610156 M141.662654,117.055781 C144.898346,117.055781 146.920654,119.240625 146.920654,123.906563 C146.920654,128.5725 144.677731,131.312813 141.699423,131.312813 C138.574038,131.312813 136.441423,129.387187 136.441423,124.350937 C136.441423,119.833125 138.647577,117.055781 141.662654,117.055781" id="Shape"></path>
                                <path d="M185.528346,118.166719 C175.600654,148.42125 147.288346,170.34375 113.975423,170.34375 C74.6691154,170.34375 41.1723462,139.607813 38.8191154,98.8734375 C39.0029615,98.6882813 39.3338846,98.7253125 39.7383462,99.3548438 C40.3266538,100.317656 43.4888077,109.31625 43.7094231,109.834688 L53.8209615,115.83375 C56.2477308,117.277969 59.3363462,116.7225 61.1380385,114.574688 C62.9397308,112.426875 62.9397308,109.242188 61.1380385,107.094375 L35.8040385,76.8028125 C34.6641923,75.4696875 33.0095769,74.6920313 31.2446538,74.7290625 C29.4797308,74.6920313 27.8251154,75.4326563 26.6852692,76.8028125 L1.35126923,107.094375 C-0.450423077,109.242187 -0.450423077,112.426875 1.35126923,114.574688 C3.15296154,116.7225 6.24157692,117.277969 8.66834615,115.83375 L21.2434231,108.390469 C27.9721923,153.864844 66.9843462,188.859375 113.975423,188.859375 C156.112962,188.859375 191.852654,160.678594 203.618808,122.055 C198.213731,125.387813 191.227577,124.980469 185.528346,118.129688" id="Path"></path>
                                <path d="M226.599577,76.8028125 C224.797885,74.655 221.709269,74.0995312 219.2825,75.54375 L207.001577,82.8389062 C201.302346,36.2165625 161.775423,-1.31561428e-14 113.975423,-1.31561428e-14 C70.6980385,-1.31561428e-14 34.2229615,29.6620313 23.4495769,69.8409375 C28.6340385,66.06375 36.5394231,66.1748437 41.8341923,72.5071875 C51.2103462,41.2898437 80.0006538,18.515625 113.975423,18.515625 C154.642192,18.515625 188.2125,51.2142187 189.242038,92.5040625 C189.058192,92.6892187 188.727269,92.72625 188.322808,92.0226562 C187.808038,91.1339062 185.528346,83.986875 184.903269,81.9501562 L174.166654,75.5807812 C171.739885,74.1365625 168.651269,74.6920312 166.849577,76.8398437 C165.047885,78.9876562 165.047885,82.1723438 166.849577,84.3201562 L192.183577,114.611719 C193.323423,115.944844 194.978038,116.7225 196.742962,116.685469 C198.507885,116.7225 200.1625,115.981875 201.302346,114.611719 L226.636346,84.3201562 C228.438038,82.1723438 228.438038,78.9876563 226.636346,76.8398437" id="Path"></path>
                            </g>
                        </g>
                    </g>
                </g>
            </g>
        </g>
    </g>
</svg>